<svg xmlns="http://www.w3.org/2000/svg" width="570" height="396.767" viewBox="0 0 570 396.767">
  <g id="Alumni_-1" data-name="Alumni -1" transform="translate(-212.001 -1585.999)">
    <g id="Group_169324" data-name="Group 169324" transform="translate(-600 -2645.001)">
      <path id="Path_80300" data-name="Path 80300" d="M678.293,317.954c-4.821,39.255-32.637,32.723-37.029,78.366-1.567,16.291,10.289,26.532,16.18,40.637,6.524,15.59,4.213,29.6-4.6,40.283H169.362c-10.688-4.906-20.887-10.126-29.764-16.394-12.221-8.612-21.893-19.228-26.825-33.782-4.452-13.151-7.882-25.838,3.813-35.813,6.349-5.423,12.958-9.608,18.7-14.635a45.448,45.448,0,0,0,11.033-13.655c21.076-41.21-5.96-77.527-15.889-118.763-.958-4.007-1.835-8.054-2.534-12.115-1.821-10.343-2.668-20.836-1.588-31.057a68.448,68.448,0,0,1,8.478-27.132c7.373-12.919,26.472-32,46.995-28.359,15.421,2.739,25.125,17.811,39.049,23.262,17.547,6.868,37.014,1.376,50.159-8.721,25.566-19.637,41.949-56.963,85.645-53.542,14.816,1.158,24.818,13.082,37.809,18.547,17.859,7.522,35.476,7.467,52.544.149,19.628-8.421,33.095-24.065,52.368-33.019a130.4,130.4,0,0,1,20.349-7.454c15.5-4.279,32.458-5.792,48.448-2.494a94.223,94.223,0,0,1,9.65,2.494c53.458,16.775,55.974,71.721,53.458,111.813-1.154,18.369-15.58,50.049-4.923,69.029S682.955,279.995,678.293,317.954Z" transform="translate(703.377 4150.528)" fill="rgba(252,79,25,0.99)" opacity="0.1"/>
    </g>
    <g id="Group_174971" data-name="Group 174971" transform="translate(223.529 1580.369)">
      <g id="Group_174901" data-name="Group 174901" transform="translate(339.516 232.432)">
        <path id="Path_88028" data-name="Path 88028" d="M437.738,409.4c0,3.628-17.77,6.571-39.691,6.571s-39.691-2.942-39.691-6.571,17.77-6.571,39.691-6.571S437.738,405.771,437.738,409.4Z" transform="translate(-358.357 -254.366)" fill="#dbecf5"/>
        <g id="Group_174886" data-name="Group 174886" transform="translate(55.892 13.911)">
          <path id="Path_88029" data-name="Path 88029" d="M420.39,359.76a39.774,39.774,0,0,1-.206-14.925c1.317-8.559,5.644-16.223,8.249-24.414a110.664,110.664,0,0,0,4.668-23.9,127.288,127.288,0,0,0-.18-26.45A48.449,48.449,0,0,0,430.74,259.3c-.308-.84-1.663-.477-1.351.373a43.088,43.088,0,0,1,1.89,8.6,120.465,120.465,0,0,1,.627,25.609,111.71,111.71,0,0,1-4.375,24.712c-1.131,3.738-2.471,7.41-3.949,11.024-1.769,4.325-3.568,8.515-4.454,13.135-1.071,5.574-1.426,11.795-.09,17.376.209.876,1.561.505,1.351-.373Z" transform="translate(-418.174 -258.827)"/>
        </g>
        <g id="Group_174887" data-name="Group 174887" transform="translate(68.149 18.144)">
          <path id="Path_88030" data-name="Path 88030" d="M445.245,263.553a23.681,23.681,0,0,0-3.96,5.527,71.53,71.53,0,0,0-7.128,19.22,132.8,132.8,0,0,0-2.861,18.376c-.081.9,1.32.893,1.4,0a110.557,110.557,0,0,1,5.894-28.386,46.7,46.7,0,0,1,6.347-12.24,12.683,12.683,0,0,1,1.3-1.505c.659-.62-.334-1.61-.99-.991Z" transform="translate(-431.292 -263.358)"/>
        </g>
        <g id="Group_174888" data-name="Group 174888" transform="translate(63.625 59.141)">
          <path id="Path_88031" data-name="Path 88031" d="M439.589,307.317a15.718,15.718,0,0,0-3.309,2.461,31.432,31.432,0,0,0-6.457,8.531,44.794,44.794,0,0,0-3.342,8.321.7.7,0,0,0,1.352.373c1.973-6.671,5.5-13.713,11.375-17.8a9.489,9.489,0,0,1,1.088-.679c.8-.408.1-1.618-.707-1.21Z" transform="translate(-426.45 -307.234)"/>
        </g>
        <path id="Path_88032" data-name="Path 88032" d="M426.97,267.848s-3.45,16.641-25.976,19.686c-14.206,1.624-20.7-3.445-20.7-3.445s6.291-4.673,10.146-19.285,10.35-19.076,22.121-20.7S430.623,253.033,426.97,267.848Z" transform="translate(-359.796 -243.94)" fill="#75d8aa"/>
        <path id="Path_88033" data-name="Path 88033" d="M449.81,253.126a23.22,23.22,0,0,0,0,22.323c6.494,11.77,21.918,16.844,25.367,23.339a63.64,63.64,0,0,0,4.668-28.615C478.831,253.532,460.77,241.356,449.81,253.126Z" transform="translate(-364.169 -244.235)" fill="#75d8aa"/>
        <path id="Path_88034" data-name="Path 88034" d="M443.664,302.168a11.205,11.205,0,0,0-3.954,5.583,30.659,30.659,0,0,0-.4,16.4c2.841,11.77,21.714,29.629,29.629,34.7a87.018,87.018,0,0,0,4.871-25.57C474.2,310,461.957,288.426,443.664,302.168Z" transform="translate(-363.609 -247.478)" fill="#75d8aa"/>
        <path id="Path_88037" data-name="Path 88037" d="M398.321,360.749s6.291,48.1,7.306,50.127,27.194,2.841,36.327,0l5.885-50.127Z" transform="translate(-360.979 -251.604)" fill="#ffc9b0"/>
        <path id="Path_88038" data-name="Path 88038" d="M410.245,360.749H398.321s6.291,48.1,7.306,50.127c.818,1.634,17.957,2.477,29.369,1.26C415.358,399.259,411.1,373.856,410.245,360.749Z" transform="translate(-360.979 -251.604)" fill="#ff836d"/>
        <path id="Path_88049" data-name="Path 88049" d="M417.133,360.749h-2.811l-.081.667s19.635,1.155,24.049,5.9c3.729,4.013,1.157,34.985.269,44.5a30.556,30.556,0,0,0,4.439-.941l5.885-50.127Z" transform="translate(-362.024 -251.604)" fill="#ffc9b0"/>
      </g>
      <g id="Group_174902" data-name="Group 174902" transform="translate(154.371 375.932)">
        <path id="Path_88050" data-name="Path 88050" d="M160.21,397.517H314.163L370.581,417H207.821Z" transform="translate(-160.21 -397.517)" fill="#ff836d"/>
        <path id="Path_88051" data-name="Path 88051" d="M160.21,403.4v-5.885L207.821,417h162.76v6.8H207.923Z" transform="translate(-160.21 -397.517)" fill="#ff836d"/>
      </g>
      <g id="Group_174932" data-name="Group 174932" transform="translate(92.47 86.577)">
        <g id="Group_174905" data-name="Group 174905" transform="translate(166.117 42.245)">
          <path id="Path_88059" data-name="Path 88059" d="M258.9,114.465V150.69a.7.7,0,0,0,1.4,0V114.465a.7.7,0,0,0-1.4,0Z" transform="translate(-258.903 -113.788)"/>
        </g>
        <path id="Path_88060" data-name="Path 88060" d="M187.375,68.577l-71.233,39.878,66.971,33.79L251.606,111.5Z" transform="translate(-83.418 -68.577)" fill="#142b70"/>
        <path id="Path_88061" data-name="Path 88061" d="M147.679,137.914s-3.652,18.671-3.247,26.991,2.436,27.329-7.1,32.944-11.364,11.906-9.741,19.212c0,0-9.741,9.335-3.45,18.468s29.021,24.758,68.8,17.047,46.8-16.641,48.666-21.715-1.584-9.944-4.628-10.756c0,0,3.855-9.335-2.029-15.627s-8.118-14-10.147-24.962a109.845,109.845,0,0,1-2.029-18.062s6.494-9.538,1.421-23.542S197.4,113.358,176.7,121.272,147.679,137.914,147.679,137.914Z" transform="translate(-83.804 -71.856)" fill="#131f32"/>
        <path id="Path_88062" data-name="Path 88062" d="M149.265,181.34a22.276,22.276,0,0,1-.274,11.86,26.964,26.964,0,0,1-2.269,5.582,33.079,33.079,0,0,1-3.442,4.95l-1.975,2.256c-.651.737-1.327,1.456-1.922,2.237l-.926,1.146c-.3.391-.57.8-.856,1.2-.592.785-1.07,1.64-1.586,2.472a22.611,22.611,0,0,0-2.224,5.39,11.27,11.27,0,0,0-.224,5.689l.064.235-.179.117a15.423,15.423,0,0,0-2.083,1.654,15.914,15.914,0,0,0-1.8,1.98,10.713,10.713,0,0,0-1.3,2.334,8.252,8.252,0,0,0-.509,2.639,7.762,7.762,0,0,1,.326-2.7,10.993,10.993,0,0,1,1.2-2.471,14.185,14.185,0,0,1,1.743-2.132,15.9,15.9,0,0,1,2.107-1.795l-.115.352a11.749,11.749,0,0,1,0-6.088,23.462,23.462,0,0,1,2.241-5.621c.52-.862,1-1.75,1.6-2.561.289-.412.565-.833.863-1.237l.933-1.182c.6-.805,1.31-1.519,1.979-2.266l1.976-2.205a29.145,29.145,0,0,0,5.78-10.148A23.949,23.949,0,0,0,149.265,181.34Z" transform="translate(-84.18 -75.976)" fill="#33131c"/>
        <path id="Path_88063" data-name="Path 88063" d="M157.579,182.408s-1.032,6.9-7.517,16.641-13.778,16.337-8.153,29.629,8.651,27.548,45.494,22.551,42.626-26.914,39.582-36.655-11.353-9.464-11.727-34.666S167.625,149.937,157.579,182.408Z" transform="translate(-84.977 -74.544)" fill="#131f32"/>
        <path id="Path_88064" data-name="Path 88064" d="M223.1,156.818s1.217,35.921-31.861,40.791c-11.365,2.029-29.021-7.711-33.485-17.859,0,0-6.088,3.044-11.568-4.059s-4.465-17.047,1.015-17.047,7.306,7.306,7.306,7.306,1.42-10.35,3.653-13.394c0,0,15.243,1.218,24.669-14s6.99-19.483,6.99-19.483,6.784-.555,11.568,2.436C209.5,126.58,221.883,136.727,223.1,156.818Z" transform="translate(-85.151 -71.887)" fill="#ffc9b0"/>
        <path id="Path_88065" data-name="Path 88065" d="M178.5,120.019c19.7-7.532,40.309,1.666,46.628,14.643l-1.57-23.572s-9.747-12.582-36.129-11.568-37.951,13.8-37.951,13.8v23.338S157.8,127.935,178.5,120.019Z" transform="translate(-85.606 -70.603)" fill="#1b3c89"/>
        <path id="Path_88074" data-name="Path 88074" d="M273.255,289.372c-4.464-23.947-7.376-40.183-73.906-80.162-4.5,14.815-17.109,22.729-17.109,22.729-12.272-8.32-15.179-22.729-15.179-22.729S110.5,236.2,102.378,254.466,75.995,329.96,82.49,346.2s87.832,36.17,102.388,32.111l-5.486-3.7s-.707-25.774,20.4-26.585l24.758,13.191h54.389S277.719,313.319,273.255,289.372Z" transform="translate(-81.12 -77.805)" fill="#fea45b"/>
        <path id="Path_88075" data-name="Path 88075" d="M187.5,280.443l41.662-54.972c-7.261-4.971-15.69-10.355-25.518-16.26-4.5,14.815-17.109,22.729-17.109,22.729-12.272-8.32-15.179-22.729-15.179-22.729s-11.48,5.478-24.837,13.167Z" transform="translate(-85.411 -77.805)" fill="#fff"/>
        <path id="Path_88076" data-name="Path 88076" d="M185.82,321.47l63.687-77.948c-4.343-3.816-9.489-7.886-15.6-12.29l-48.09,63.044-48.792-66.009c-5.558,3.408-11.122,7.075-16.056,10.787Z" transform="translate(-83.735 -79.055)" fill="rgba(252,79,25,0.99)"/>
        <path id="Path_88079" data-name="Path 88079" d="M160.21,215.753c1.118,2.918,2.2,5.848,3.28,8.781l3.227,8.8q3.194,8.81,6.29,17.653l-1.378-.244,7.513-9.5,7.564-9.457.718-.9.726.89,8.534,10.468,8.48,10.513-1.389.256L206.9,244l3.168-9,3.234-8.979c1.08-2.993,2.166-5.983,3.288-8.962-.887,3.057-1.809,6.1-2.738,9.145l-2.793,9.126-2.857,9.1-2.9,9.091-.445,1.393-.945-1.137-8.628-10.39-8.575-10.435,1.443-.006-7.615,9.416-7.666,9.376-.929,1.136-.45-1.38c-1.936-5.939-3.866-11.88-5.75-17.836l-2.793-8.946C162.021,221.734,161.1,218.75,160.21,215.753Z" transform="translate(-86.31 -78.234)" fill="#dbecf5"/>
        <path id="Path_88080" data-name="Path 88080" d="M231.45,370.962l-24.812-13.187c-21.049.855-20.344,26.581-20.344,26.581s12.483,8.523,16.542,10.756,15.017,8.321,17.859,8.118,7.509-.812,7.915-3.45c0,0,1.827,2.435,5.682,1.217s4.059-3.247,3.653-5.276-6.088-11.365-6.088-11.365,7.914,11.77,10.147,11.365,5.682-1.825,4.87-5.987S231.45,370.962,231.45,370.962Z" transform="translate(-88.021 -87.553)" fill="#ffc9b0"/>
        <g id="Group_174913" data-name="Group 174913" transform="translate(131.978 301.786)">
          <path id="Path_88081" data-name="Path 88081" d="M231.472,401.5l-6.921-8.518-.993-1.224a.707.707,0,0,0-.991,0,.717.717,0,0,0,0,.991q3.46,4.258,6.92,8.518l.994,1.223a.706.706,0,0,0,.991,0,.716.716,0,0,0,0-.99Z" transform="translate(-222.366 -391.556)"/>
        </g>
        <g id="Group_174921" data-name="Group 174921" transform="translate(161.955 78.567)">
          <g id="Group_174914" data-name="Group 174914" transform="translate(1.125 0.385)">
            <path id="Path_88082" data-name="Path 88082" d="M258.728,153.234c-4.544,5.715-2.381,13.327-3.072,19.982-.063.6.87.591.932,0,.656-6.315-1.516-13.9,2.8-19.323.369-.464-.286-1.128-.659-.659Z" transform="translate(-255.653 -153.073)"/>
          </g>
          <g id="Group_174915" data-name="Group 174915" transform="translate(3.185)">
            <path id="Path_88083" data-name="Path 88083" d="M259.149,152.994c-1.6,6.616-1.368,13.45-1.1,20.2.024.6.956.6.932,0-.269-6.662-.521-13.418,1.062-19.951.141-.582-.757-.831-.9-.248Z" transform="translate(-257.857 -152.661)"/>
          </g>
          <g id="Group_174916" data-name="Group 174916" transform="translate(4.803 0.152)">
            <path id="Path_88084" data-name="Path 88084" d="M259.589,153.273q.077,9.661.155,19.322a.466.466,0,0,0,.932,0q-.077-9.661-.155-19.322a.466.466,0,0,0-.932,0Z" transform="translate(-259.589 -152.824)"/>
          </g>
          <g id="Group_174917" data-name="Group 174917" transform="translate(4.563 0.05)">
            <path id="Path_88085" data-name="Path 88085" d="M259.572,153.567c1.3.6,1.522,2.338,1.813,3.587q.6,2.561.948,5.17a56.828,56.828,0,0,1,.425,10.261c-.029.6.9.6.932,0a57.659,57.659,0,0,0-.553-11.179,55.161,55.161,0,0,0-1.1-5.505c-.311-1.229-.762-2.568-2-3.139-.541-.249-1.015.553-.471.8Z" transform="translate(-259.331 -152.715)"/>
          </g>
          <g id="Group_174918" data-name="Group 174918" transform="translate(5.149 1.2)">
            <path id="Path_88086" data-name="Path 88086" d="M259.97,154.528c.327,1.559.659,3.119.98,4.68a22.112,22.112,0,0,1,.4,4.715q-.046,5.015-.1,10.03a.466.466,0,0,0,.932,0c.034-3.437.074-6.873.1-10.31a44.024,44.024,0,0,0-1.419-9.363c-.123-.587-1.021-.339-.9.248Z" transform="translate(-259.959 -153.945)"/>
          </g>
          <g id="Group_174919" data-name="Group 174919" transform="translate(0 0.026)">
            <path id="Path_88087" data-name="Path 88087" d="M258.976,152.748c-2.46,1.314-3.492,4-3.962,6.6a36.9,36.9,0,0,0-.44,9.521c.048.594.98.6.932,0a36.5,36.5,0,0,1,.315-8.736c.41-2.539,1.2-5.286,3.626-6.584.529-.282.059-1.087-.471-.8Z" transform="translate(-254.448 -152.689)"/>
          </g>
          <g id="Group_174920" data-name="Group 174920" transform="translate(1.953 1.525)">
            <path id="Path_88088" data-name="Path 88088" d="M258.4,154.615a36.585,36.585,0,0,0-1.667,15.237c.061.591.993.6.932,0a35.92,35.92,0,0,1,1.633-14.989c.189-.57-.71-.815-.9-.248Z" transform="translate(-256.539 -154.293)"/>
          </g>
        </g>
        <g id="Group_174929" data-name="Group 174929" transform="translate(162.692 79.767)">
          <g id="Group_174922" data-name="Group 174922" transform="translate(4.018 0.385)">
            <path id="Path_88089" data-name="Path 88089" d="M260.305,154.518c4.544,5.715,2.381,13.327,3.072,19.982.062.6-.87.591-.932,0-.656-6.316,1.516-13.9-2.8-19.323-.369-.464.286-1.128.659-.659Z" transform="translate(-259.537 -154.357)"/>
          </g>
          <g id="Group_174923" data-name="Group 174923" transform="translate(3.596)">
            <path id="Path_88090" data-name="Path 88090" d="M260,154.278c1.6,6.615,1.368,13.45,1.1,20.2-.024.6-.956.6-.932,0,.269-6.663.521-13.419-1.062-19.951-.141-.582.757-.831.9-.248Z" transform="translate(-259.086 -153.945)"/>
          </g>
          <g id="Group_174924" data-name="Group 174924" transform="translate(3.097 0.151)">
            <path id="Path_88091" data-name="Path 88091" d="M259.638,154.557q-.077,9.661-.155,19.322a.466.466,0,0,1-.932,0q.077-9.661.155-19.322a.466.466,0,0,1,.932,0Z" transform="translate(-258.551 -154.107)"/>
          </g>
          <g id="Group_174925" data-name="Group 174925" transform="translate(0 0.05)">
            <path id="Path_88092" data-name="Path 88092" d="M259.419,154.85c-1.3.6-1.521,2.339-1.812,3.587q-.6,2.561-.948,5.171a56.821,56.821,0,0,0-.425,10.261c.029.6-.9.6-.932,0a57.655,57.655,0,0,1,.553-11.179,55.175,55.175,0,0,1,1.1-5.506c.311-1.228.762-2.568,2-3.138.541-.25,1.015.552.47.8Z" transform="translate(-255.237 -153.999)"/>
          </g>
          <g id="Group_174926" data-name="Group 174926" transform="translate(1.508 1.199)">
            <path id="Path_88093" data-name="Path 88093" d="M259.168,155.811c-.326,1.56-.658,3.119-.979,4.681a22.1,22.1,0,0,0-.4,4.715q.046,5.015.1,10.03a.466.466,0,0,1-.932,0c-.034-3.437-.074-6.874-.1-10.311a44.042,44.042,0,0,1,1.419-9.362c.123-.587,1.021-.338.9.248Z" transform="translate(-256.85 -155.228)"/>
          </g>
          <g id="Group_174927" data-name="Group 174927" transform="translate(3.756 0.026)">
            <path id="Path_88094" data-name="Path 88094" d="M259.96,154.032c2.46,1.314,3.492,4,3.962,6.6a36.9,36.9,0,0,1,.44,9.521c-.048.593-.98.6-.932,0a36.506,36.506,0,0,0-.315-8.736c-.41-2.538-1.2-5.285-3.626-6.583-.529-.283-.059-1.087.471-.8Z" transform="translate(-259.257 -153.973)"/>
          </g>
          <g id="Group_174928" data-name="Group 174928" transform="translate(4.252 1.525)">
            <path id="Path_88095" data-name="Path 88095" d="M260.711,155.9a36.583,36.583,0,0,1,1.667,15.237c-.061.59-.993.6-.932,0a35.917,35.917,0,0,0-1.633-14.989c-.189-.57.71-.815.9-.248Z" transform="translate(-259.787 -155.577)"/>
          </g>
        </g>
        <path id="Path_88096" data-name="Path 88096" d="M193.243,202.79c-5.927,1.059-13.562-1.088-20.146-4.82h0v10.5S176,222.882,188.276,231.2c0,0,12.609-7.914,17.109-22.729V198.99A38.53,38.53,0,0,1,193.243,202.79Z" transform="translate(-87.155 -77.067)" fill="#ffc9b0"/>
        <path id="Path_88098" data-name="Path 88098" d="M173.8,216.29a37.06,37.06,0,0,1-2.443-7.08s-11.48,5.478-24.837,13.167l9.21,13.051A77.855,77.855,0,0,1,173.8,216.29Z" transform="translate(-85.411 -77.805)" fill="#dbecf5" opacity="0.63" style="mix-blend-mode: multiply;isolation: isolate"/>
        <path id="Path_88099" data-name="Path 88099" d="M169.013,102.722c-13.431,4.081-19.532,10.815-19.532,10.815v23.338s6.49-6.8,22.248-13.837C166.563,113.936,167.146,107.19,169.013,102.722Z" transform="translate(-85.606 -70.817)" fill="#1b3c89"/>
        <g id="Group_174930" data-name="Group 174930" transform="translate(0 183.192)">
          <path id="Path_88100" data-name="Path 88100" d="M179.657,373.825c-45.542-7.59-77.473-27.819-84.991-34.545-7.711-6.9-3.652-19.888,0-45.667,1.39-9.812,3.251-20.052,5.022-28.979-8.817,22.716-23.047,70.578-17.2,85.2,6.494,16.235,87.832,36.17,102.388,32.111l-5.486-3.7A34.436,34.436,0,0,1,179.657,373.825Z" transform="translate(-81.12 -264.634)" fill="rgba(255,152,67,0.99)"/>
          <path id="Path_88101" data-name="Path 88101" d="M259.619,295.571l5.7,71.309h7.652Z" transform="translate(-92.833 -266.664)" fill="rgba(255,152,67,0.99)"/>
        </g>
        <g id="Group_174931" data-name="Group 174931" transform="translate(164.742 211.339)">
          <path id="Path_88102" data-name="Path 88102" d="M265.175,366.827c-.243-5.994-.557-11.987-.9-17.977-.671-11.9-1.46-23.8-2.612-35.663-.573-5.905-1.218-11.815-2.193-17.67-.222-1.332-2.248-.766-2.028.559,1.844,11.068,2.675,22.325,3.493,33.507q1.131,15.469,1.849,30.965c.1,2.092.2,4.185.283,6.278.055,1.348,2.158,1.355,2.1,0Z" transform="translate(-257.431 -294.757)"/>
        </g>
        <path id="Path_88103" data-name="Path 88103" d="M186.558,381.493a34.436,34.436,0,0,0-.265,4.42s12.483,8.523,16.542,10.756,15.017,8.321,17.859,8.118a28.39,28.39,0,0,0,3.045-.365C211.451,398.116,186.565,381.5,186.558,381.493Z" transform="translate(-88.021 -89.11)" fill="#ff836d"/>
        <path id="Path_88104" data-name="Path 88104" d="M144.727,238.682l-7.7-10.416c-5.558,3.408-11.122,7.075-16.056,10.787l5.114,6.5A96.819,96.819,0,0,1,144.727,238.682Z" transform="translate(-83.735 -79.055)" fill="rgba(252,79,25,0.99)"/>
        <path id="Path_88105" data-name="Path 88105" d="M186.7,119.369a39.452,39.452,0,0,1-3.439,10.639,45.648,45.648,0,0,1-6.032,9.475,45.447,45.447,0,0,1-12.916,10.709,23.47,23.47,0,0,1-2.512,1.241q-1.27.589-2.549,1.146a60.665,60.665,0,0,0,9.357-5.982l1.084-.861a10.46,10.46,0,0,0,1.06-.889l2.04-1.869c.686-.617,1.27-1.336,1.91-2l.94-1.014c.3-.351.576-.719.866-1.077.57-.722,1.2-1.4,1.722-2.161l1.6-2.258,1.448-2.358c.465-.8.886-1.619,1.344-2.423s.817-1.657,1.23-2.485c.38-.843.736-1.7,1.088-2.555A43.351,43.351,0,0,0,186.7,119.369Z" transform="translate(-86.247 -71.91)" fill="#33131c"/>
        <path id="Path_88106" data-name="Path 88106" d="M174.375,123.41a55.027,55.027,0,0,0-4.013,4.471c-.633.775-1.244,1.567-1.855,2.356-.577.816-1.175,1.616-1.735,2.442a63.552,63.552,0,0,0-5.846,10.416c-.891,1.785-1.53,3.676-2.252,5.532-.567,1.909-1.22,3.8-1.628,5.75a67.248,67.248,0,0,0-1.7,11.863q-.01-1.5.008-3.014a24.271,24.271,0,0,1,.127-3.017l.328-3.008c.112-1,.361-1.985.535-2.98a51.188,51.188,0,0,1,1.524-5.864c.328-.956.7-1.9,1.042-2.848a30.244,30.244,0,0,1,1.165-2.8,58.609,58.609,0,0,1,6.113-10.445A50.061,50.061,0,0,1,174.375,123.41Z" transform="translate(-85.99 -72.175)" fill="#33131c"/>
        <path id="Path_88107" data-name="Path 88107" d="M156.69,133.9c-.407,1.09-.807,2.175-1.154,3.281q-.554,1.644-1.025,3.31c-.626,2.221-1.184,4.457-1.62,6.717a68.529,68.529,0,0,0-1.04,6.825l-.171,1.721-.091,1.73c-.116,1.155-.049,2.31-.124,3.477a36.987,36.987,0,0,1-.331-6.98c0-1.172.178-2.329.272-3.5.175-1.155.327-2.315.569-3.46a47.577,47.577,0,0,1,1.855-6.752A38.187,38.187,0,0,1,156.69,133.9Z" transform="translate(-85.711 -72.863)" fill="#33131c"/>
        <path id="Path_88108" data-name="Path 88108" d="M202.657,119.031a43.037,43.037,0,0,1,11.8,6.47,39.859,39.859,0,0,1,9.22,9.9,37.168,37.168,0,0,1,3.053,6.078,34.861,34.861,0,0,1,1.757,6.562,38.113,38.113,0,0,1-.427,13.449c.088-1.12.237-2.23.3-3.347.029-1.118.126-2.231.059-3.348a37.265,37.265,0,0,0-.639-6.631,40.56,40.56,0,0,0-1.841-6.376,36.568,36.568,0,0,0-3.047-5.886,41.1,41.1,0,0,0-8.877-9.837,49.174,49.174,0,0,0-5.441-3.875A45.749,45.749,0,0,0,202.657,119.031Z" transform="translate(-89.095 -71.887)" fill="#33131c"/>
        <path id="Path_88109" data-name="Path 88109" d="M226.933,173.018a32.352,32.352,0,0,0-.781,6.924,37.143,37.143,0,0,0,.5,6.923,39.736,39.736,0,0,0,4.457,13.045c2.192,4.087,4.71,8.054,6.722,12.3a27.329,27.329,0,0,1,1.313,3.288,12.015,12.015,0,0,1,.642,3.5,12.831,12.831,0,0,1-.426,3.512,34.008,34.008,0,0,1-1.017,3.358,21.185,21.185,0,0,0,.986-6.847,17.249,17.249,0,0,0-2.144-6.5c-2.122-4.133-4.611-8.068-6.9-12.173a38.774,38.774,0,0,1-4.344-13.386A33.122,33.122,0,0,1,226.933,173.018Z" transform="translate(-90.602 -75.43)" fill="#33131c"/>
      </g>
      <g id="Group_174933" data-name="Group 174933" transform="translate(195.85 292.726)">
        <path id="Path_88110" data-name="Path 88110" d="M271.235,308.467,211.165,411.156h162.76l51.953-102.689Z" transform="translate(-205.033 -308.467)" fill="#ffc9b0"/>
        <path id="Path_88111" data-name="Path 88111" d="M211.266,425.166l-.1-6.8h162.76v6.8Z" transform="translate(-205.033 -315.679)" fill="#ff836d"/>
        <path id="Path_88112" data-name="Path 88112" d="M210.734,411.156l-6.132-2.509,59.708-100.18H270.8Z" transform="translate(-204.602 -308.467)" fill="#ff9a88"/>
        <path id="Path_88113" data-name="Path 88113" d="M412.189,308.468c-1.223,9.61-5.772,27.979-22.627,48.85-8.406,10.408-27.213,35.426-124.726,53.838h112.61L429.4,308.468Z" transform="translate(-208.555 -308.468)" fill="#ff9a88"/>
      </g>
      <g id="Group_174958" data-name="Group 174958" transform="translate(283.362 110.822)">
        <rect id="Rectangle_148809" data-name="Rectangle 148809" width="133.98" height="95.332" rx="14" fill="#ff8526"/>
        <rect id="Rectangle_148810" data-name="Rectangle 148810" width="126.178" height="89.781" rx="10.612" transform="translate(3.901 2.776)" fill="#fee8de"/>
        <path id="Path_88121" data-name="Path 88121" d="M427.166,121.358a9.9,9.9,0,0,0-8.36-4.6H312.459a9.9,9.9,0,0,0-8.359,4.6Z" transform="translate(-298.643 -113.984)" fill="#ffc9b0"/>
        <circle id="Ellipse_3530" data-name="Ellipse 3530" cx="1.019" cy="1.019" r="1.019" transform="translate(11.644 4.136)" fill="#fff"/>
        <circle id="Ellipse_3531" data-name="Ellipse 3531" cx="1.019" cy="1.019" r="1.019" transform="translate(15.454 4.136)" fill="#fff"/>
        <path id="Path_88122" data-name="Path 88122" d="M320.914,119.233a1.019,1.019,0,1,1-1.019-1.018A1.019,1.019,0,0,1,320.914,119.233Z" transform="translate(-299.612 -114.079)" fill="#fff"/>
        <rect id="Rectangle_148811" data-name="Rectangle 148811" width="53.708" height="53.708" rx="3.293" transform="translate(11.302 20.675)" fill="#fff"/>
        <g id="Group_174949" data-name="Group 174949" transform="translate(19.207 26.099)">
          <path id="Path_88123" data-name="Path 88123" d="M355.268,191.81c-1.523-7.995-3.39-16.633-4.582-18.063-2.3-2.76-8.189-4.376-8.189-4.376l-4.958,10.014-4.9-10.151c-9.564,2.773-9.168,3.715-10.738,10.151-.7,2.875-1.937,7.825-3.09,12.425Z" transform="translate(-318.815 -143.526)" fill="#fea45b"/>
          <g id="Group_174942" data-name="Group 174942" transform="translate(8.343 4.941)">
            <path id="Path_88124" data-name="Path 88124" d="M327.744,147.183V153.7a.181.181,0,0,0,.362,0v-6.515a.181.181,0,0,0-.362,0Z" transform="translate(-327.744 -147.008)"/>
          </g>
          <path id="Path_88125" data-name="Path 88125" d="M327.18,157.681s-.2-3.434.706-3.512.961,3.512.961,3.512h-.569l-.137-1.109L328,157.681Z" transform="translate(-319.363 -142.537)"/>
          <path id="Path_88126" data-name="Path 88126" d="M327.892,146.981l9.972,2.082a.227.227,0,0,0,.1,0l10.047-2.083a.24.24,0,0,0,.055-.451l-10.009-4.785a.236.236,0,0,0-.206,0l-10.01,4.786A.239.239,0,0,0,327.892,146.981Z" transform="translate(-319.398 -141.721)" fill="#142b70"/>
          <path id="Path_88127" data-name="Path 88127" d="M343.613,150.673s-3.453-.589-5.455.943c0,0-1.06-1.374-5.652-.706,0,0-1.923,2.276-.589,6.4s10.008,2,10.008,2,2.041-.392,2.9-3.336A5.036,5.036,0,0,0,343.613,150.673Z" transform="translate(-319.644 -142.301)" fill="#333"/>
          <path id="Path_88128" data-name="Path 88128" d="M332.563,150.557l-.235-3.729s5.809-3.689,11.774,0l-.432,3.493s-3.453-.589-5.455.943C338.216,151.263,337.156,149.889,332.563,150.557Z" transform="translate(-319.702 -141.948)" fill="#1b3c89"/>
          <path id="Path_88129" data-name="Path 88129" d="M341.13,150.615a5.716,5.716,0,0,0-2.89,1,3.067,3.067,0,0,0-1.919-.788c-.951.476-2.6,1.743-3.615,5.026a50.649,50.649,0,0,0,1.334,6c.668,1.923,1.963,2.59,4.436,2.63s3.924-.315,4.866-3.454a18.774,18.774,0,0,0,.942-4.788S343.259,152.453,341.13,150.615Z" transform="translate(-319.727 -142.304)" fill="#ffc9b0"/>
          <path id="Path_88130" data-name="Path 88130" d="M332.772,157.189s-.748-.76-1.337.339.6,4.149,2.026,3.016h0C333.176,159.356,332.925,158.041,332.772,157.189Z" transform="translate(-319.633 -142.719)" fill="#ffc9b0"/>
          <path id="Path_88131" data-name="Path 88131" d="M346.073,157.528c-.357-.666-.772-.648-1.044-.533a20.177,20.177,0,0,1-.713,3.715C345.619,161.295,346.623,158.557,346.073,157.528Z" transform="translate(-320.488 -142.719)" fill="#ffc9b0"/>
          <path id="Path_88132" data-name="Path 88132" d="M338.715,165.442a7.131,7.131,0,0,1-2.364-.363h0v2.756s.086,2.739,2.131,3.022c2.551.353,2.551-3.14,2.551-3.14v-2.505A7.475,7.475,0,0,1,338.715,165.442Z" transform="translate(-319.965 -143.253)" fill="#ffc9b0"/>
          <path id="Path_88138" data-name="Path 88138" d="M340.851,168.174h-.012c-.06.8-.417,3.17-2.539,2.877-2.045-.283-2.131-3.022-2.131-3.022l-2.555,1.125,4.9,10.151,4.958-10.014Z" transform="translate(-319.786 -143.447)" fill="#dbecf5" opacity="0.63" style="mix-blend-mode: multiply;isolation: isolate"/>
          <path id="Path_88139" data-name="Path 88139" d="M338.2,186.254l8.144-15.789a28.578,28.578,0,0,0-3.09-1.094L338.3,179.384l-4.9-10.151c-1.138.33-2.135.634-3.012.925Z" transform="translate(-319.575 -143.526)" fill="#fc5019"/>
          <path id="Path_88142" data-name="Path 88142" d="M335.186,145.669a11.634,11.634,0,0,0-2.858,1.19l.235,3.729a13.606,13.606,0,0,1,3.361-.131A4.32,4.32,0,0,1,335.186,145.669Z" transform="translate(-319.702 -141.98)" fill="#142b70"/>
        </g>
        <rect id="Rectangle_148812" data-name="Rectangle 148812" width="53.708" height="53.708" rx="3.293" transform="translate(68.971 20.675)" fill="#fff"/>
        <g id="Group_174957" data-name="Group 174957" transform="translate(76.876 26.099)">
          <path id="Path_88145" data-name="Path 88145" d="M405.259,150.471a9.457,9.457,0,0,1,1.662,5.223c.233,3.524.107,9.156.107,9.156s-5.844,3.577-14.921,0c0,0-.577-9.224,2.045-14.143S404.506,147.128,405.259,150.471Z" transform="translate(-381.29 -142.098)" fill="#333"/>
          <path id="Path_88146" data-name="Path 88146" d="M416.987,191.81c-1.522-7.995-3.389-16.633-4.582-18.063-2.3-2.76-8.189-4.376-8.189-4.376l-4.958,10.014-4.9-10.151c-9.565,2.773-9.169,3.715-10.739,10.151-.7,2.875-1.937,7.825-3.09,12.425Z" transform="translate(-380.534 -143.526)" fill="#fea45b"/>
          <g id="Group_174950" data-name="Group 174950" transform="translate(8.343 4.941)">
            <path id="Path_88147" data-name="Path 88147" d="M389.463,147.183V153.7a.181.181,0,0,0,.362,0v-6.515a.181.181,0,0,0-.362,0Z" transform="translate(-389.463 -147.008)"/>
          </g>
          <path id="Path_88148" data-name="Path 88148" d="M388.9,157.681s-.2-3.434.706-3.512.961,3.512.961,3.512H390l-.137-1.109-.137,1.109Z" transform="translate(-381.082 -142.537)"/>
          <path id="Path_88149" data-name="Path 88149" d="M389.611,146.981l9.972,2.082a.227.227,0,0,0,.1,0l10.048-2.083a.24.24,0,0,0,.054-.451l-10.008-4.785a.238.238,0,0,0-.207,0l-10.01,4.786A.239.239,0,0,0,389.611,146.981Z" transform="translate(-381.117 -141.721)" fill="#142b70"/>
          <path id="Path_88150" data-name="Path 88150" d="M402.849,150.615a5.722,5.722,0,0,0-2.89,1,3.066,3.066,0,0,0-1.918-.788c-.952.476-2.6,1.743-3.615,5.026a50.649,50.649,0,0,0,1.334,6c.667,1.923,1.962,2.59,4.435,2.63s3.924-.315,4.866-3.454A18.774,18.774,0,0,0,406,156.25S404.979,152.453,402.849,150.615Z" transform="translate(-381.446 -142.304)" fill="#ffc9b0"/>
          <path id="Path_88151" data-name="Path 88151" d="M394.491,157.189s-.748-.76-1.337.339.6,4.149,2.027,3.016h0C394.895,159.356,394.645,158.041,394.491,157.189Z" transform="translate(-381.352 -142.719)" fill="#ffc9b0"/>
          <path id="Path_88152" data-name="Path 88152" d="M407.792,157.528c-.357-.666-.771-.648-1.043-.533a20.3,20.3,0,0,1-.714,3.715C407.337,161.295,408.342,158.557,407.792,157.528Z" transform="translate(-382.207 -142.719)" fill="#ffc9b0"/>
          <path id="Path_88153" data-name="Path 88153" d="M400.434,165.442a7.131,7.131,0,0,1-2.364-.363h0v2.756s.086,2.739,2.131,3.022c2.551.353,2.551-3.14,2.551-3.14v-2.505A7.472,7.472,0,0,1,400.434,165.442Z" transform="translate(-381.684 -143.253)" fill="#ffc9b0"/>
          <g id="Group_174951" data-name="Group 174951" transform="translate(13.922 12.163)">
            <path id="Path_88157" data-name="Path 88157" d="M395.767,156.082c.018-.038.038-.077.06-.113s.05-.08.076-.12.034-.05.051-.073l.024-.033c-.023.031.008-.009.016-.02a2.064,2.064,0,0,1,.314-.312,1.579,1.579,0,0,1,.435-.237,1.55,1.55,0,0,1,.692-.063.181.181,0,0,0,.18-.18.186.186,0,0,0-.18-.181,1.975,1.975,0,0,0-1.894.991,1.236,1.236,0,0,0-.087.158.186.186,0,0,0,.065.248.183.183,0,0,0,.248-.065Z" transform="translate(-395.433 -154.738)" fill="#2d2d2d"/>
          </g>
          <path id="Path_88159" data-name="Path 88159" d="M402.57,168.174h-.012c-.06.8-.417,3.17-2.539,2.877-2.045-.283-2.131-3.022-2.131-3.022l-2.554,1.125,4.9,10.151,4.958-10.014Z" transform="translate(-381.505 -143.447)" fill="#dbecf5" opacity="0.63" style="mix-blend-mode: multiply;isolation: isolate"/>
          <path id="Path_88160" data-name="Path 88160" d="M399.921,186.254l8.144-15.789a28.577,28.577,0,0,0-3.09-1.094l-4.958,10.014-4.9-10.151c-1.139.33-2.135.634-3.012.925Z" transform="translate(-381.294 -143.526)" fill="#fc5019"/>
          <path id="Path_88166" data-name="Path 88166" d="M394.577,156.624s4.477-.825,9.59-6.2a4.489,4.489,0,0,0-5.846-1.573A6.345,6.345,0,0,0,394.577,156.624Z" transform="translate(-381.438 -142.154)" fill="#333"/>
          <path id="Path_88167" data-name="Path 88167" d="M394.283,150.557l-.235-3.729s5.808-3.689,11.773,0l-.432,3.493s-3.453-.589-5.455.943C399.935,151.263,398.875,149.889,394.283,150.557Z" transform="translate(-381.421 -141.948)" fill="#1b3c89"/>
          <path id="Path_88168" data-name="Path 88168" d="M396.905,145.669a11.636,11.636,0,0,0-2.857,1.19l.235,3.729a13.6,13.6,0,0,1,3.36-.131A4.32,4.32,0,0,1,396.905,145.669Z" transform="translate(-381.421 -141.98)" fill="#142b70"/>
        </g>
      </g>
    </g>
  </g>
</svg>
