<svg xmlns="http://www.w3.org/2000/svg" xmlns:xlink="http://www.w3.org/1999/xlink" width="806" height="611" viewBox="0 0 806 611"><defs><style>.cls-1{mask:url(#mask);filter:url(#luminosity-noclip-14);}.cls-107,.cls-109,.cls-11,.cls-111,.cls-113,.cls-115,.cls-117,.cls-13,.cls-15,.cls-17,.cls-19,.cls-2,.cls-21,.cls-23,.cls-25,.cls-27,.cls-4,.cls-6,.cls-9{mix-blend-mode:multiply;}.cls-2{fill:url(#linear-gradient);}.cls-3{mask:url(#mask-2);filter:url(#luminosity-noclip-19);}.cls-4{fill:url(#linear-gradient-2);}.cls-5{mask:url(#mask-3);filter:url(#luminosity-noclip-20);}.cls-6{fill:url(#linear-gradient-3);}.cls-103,.cls-60,.cls-64,.cls-7,.cls-98{fill:#fff;}.cls-7{fill-rule:evenodd;}.cls-8{mask:url(#mask-4);filter:url(#luminosity-noclip-15);}.cls-9{fill:url(#linear-gradient-4);}.cls-10{mask:url(#mask-5);filter:url(#luminosity-noclip-16);}.cls-11{fill:url(#linear-gradient-5);}.cls-12{mask:url(#mask-6);filter:url(#luminosity-noclip-21);}.cls-13{fill:url(#linear-gradient-6);}.cls-14{mask:url(#mask-7);filter:url(#luminosity-noclip-22);}.cls-15{fill:url(#linear-gradient-7);}.cls-16{mask:url(#mask-8);filter:url(#luminosity-noclip-23);}.cls-17{fill:url(#linear-gradient-8);}.cls-18{mask:url(#mask-9);filter:url(#luminosity-noclip-24);}.cls-19{fill:url(#linear-gradient-9);}.cls-20{mask:url(#mask-10);filter:url(#luminosity-noclip-25);}.cls-21{fill:url(#linear-gradient-10);}.cls-22{mask:url(#mask-11);filter:url(#luminosity-noclip-26);}.cls-23{fill:url(#linear-gradient-11);}.cls-24{mask:url(#mask-12);filter:url(#luminosity-noclip-17);}.cls-25{fill:url(#linear-gradient-12);}.cls-26{mask:url(#mask-13);filter:url(#luminosity-noclip-18);}.cls-27{fill:url(#linear-gradient-13);}.cls-103,.cls-28,.cls-49,.cls-56,.cls-59,.cls-62,.cls-64,.cls-74,.cls-76,.cls-83,.cls-91,.cls-98{isolation:isolate;}.cls-29{fill:url(#linear-gradient-14);}.cls-30{fill:url(#New_Gradient_Swatch_4);}.cls-31{mask:url(#mask-14);}.cls-32{fill:url(#linear-gradient-15);}.cls-33{mask:url(#mask-15);}.cls-34{fill:url(#linear-gradient-16);}.cls-35{mask:url(#mask-16);}.cls-36{fill:url(#linear-gradient-17);}.cls-37{mask:url(#mask-17);}.cls-38{fill:url(#linear-gradient-18);}.cls-39{mask:url(#mask-18);}.cls-40{fill:url(#linear-gradient-19);}.cls-41{mask:url(#mask-19);}.cls-42{fill:url(#linear-gradient-20);}.cls-43{mask:url(#mask-20);}.cls-44{fill:url(#linear-gradient-21);}.cls-45{fill:url(#linear-gradient-22);}.cls-46{mask:url(#mask-21);}.cls-47{fill:url(#linear-gradient-23);}.cls-48{mask:url(#mask-22);}.cls-49{fill:#50211f;}.cls-49,.cls-74,.cls-76,.cls-83,.cls-91{opacity:0.2;}.cls-50{fill:url(#linear-gradient-24);}.cls-51{mask:url(#mask-23);}.cls-52{fill:url(#linear-gradient-25);}.cls-53{mask:url(#mask-24);}.cls-54{fill:url(#linear-gradient-26);}.cls-55{mask:url(#mask-25);}.cls-56{fill:#151731;}.cls-56,.cls-59,.cls-98{opacity:0.3;}.cls-57{fill:url(#linear-gradient-27);}.cls-58{mask:url(#mask-26);}.cls-59,.cls-83{fill:#373a5b;}.cls-61{mask:url(#mask-32);}.cls-62{fill:none;stroke:#fff;stroke-linecap:round;stroke-linejoin:round;stroke-dasharray:2 3;}.cls-105,.cls-62,.cls-64{opacity:0.5;}.cls-63{mask:url(#mask-34);}.cls-65{fill:url(#linear-gradient-28);}.cls-66{fill:url(#linear-gradient-29);}.cls-67{fill:url(#linear-gradient-30);}.cls-68{fill:url(#linear-gradient-31);}.cls-69{mask:url(#mask-38);}.cls-70{fill:url(#linear-gradient-32);}.cls-71{mask:url(#mask-39);}.cls-72{fill:url(#linear-gradient-33);}.cls-73{mask:url(#mask-40);}.cls-74{fill:url(#linear-gradient-34);}.cls-75{mask:url(#mask-41);}.cls-76{fill:url(#linear-gradient-35);}.cls-77{fill:url(#linear-gradient-36);}.cls-78{fill:url(#linear-gradient-37);}.cls-79{fill:url(#linear-gradient-38);}.cls-80{fill:url(#linear-gradient-39);}.cls-81{fill:url(#linear-gradient-40);}.cls-82{mask:url(#mask-42);}.cls-84{fill:url(#linear-gradient-41);}.cls-85{mask:url(#mask-43);}.cls-86{fill:url(#linear-gradient-42);}.cls-87{fill:url(#linear-gradient-43);}.cls-88{mask:url(#mask-44);}.cls-89{fill:url(#linear-gradient-44);}.cls-90{mask:url(#mask-46);}.cls-91{fill:#da433d;}.cls-92{fill:url(#linear-gradient-45);}.cls-93{mask:url(#mask-47);}.cls-94{mask:url(#mask-48);}.cls-95{fill:url(#linear-gradient-46);}.cls-96{mask:url(#mask-50);}.cls-97{fill:url(#linear-gradient-47);}.cls-99{fill:url(#linear-gradient-48);}.cls-100{fill:url(#linear-gradient-49);}.cls-101{fill:url(#linear-gradient-50);}.cls-102{fill:url(#linear-gradient-51);}.cls-103{opacity:0.4;}.cls-104{fill:url(#linear-gradient-52);}.cls-106{mask:url(#mask-51);}.cls-107{fill:url(#linear-gradient-53);}.cls-108{mask:url(#mask-52);}.cls-109{fill:url(#linear-gradient-54);}.cls-110{mask:url(#mask-53);}.cls-111{fill:url(#linear-gradient-55);}.cls-112{mask:url(#mask-54);}.cls-113{fill:url(#linear-gradient-56);}.cls-114{mask:url(#mask-55);}.cls-115{fill:url(#linear-gradient-57);}.cls-116{mask:url(#mask-56);}.cls-117{fill:url(#linear-gradient-58);}.cls-118{fill:url(#linear-gradient-59);}.cls-119{opacity:0.3;}.cls-120{fill:#e6e6e6;}.cls-121{fill:url(#linear-gradient-60);}.cls-122{fill:url(#linear-gradient-61);}.cls-123{fill:#4d4d4d;}.cls-124{filter:url(#luminosity-noclip-13);}.cls-125{filter:url(#luminosity-noclip-12);}.cls-126{filter:url(#luminosity-noclip-11);}.cls-127{filter:url(#luminosity-noclip-10);}.cls-128{filter:url(#luminosity-noclip-9);}.cls-129{filter:url(#luminosity-noclip-8);}.cls-130{filter:url(#luminosity-noclip-7);}.cls-131{filter:url(#luminosity-noclip-6);}.cls-132{filter:url(#luminosity-noclip-5);}.cls-133{filter:url(#luminosity-noclip-4);}.cls-134{filter:url(#luminosity-noclip-3);}.cls-135{filter:url(#luminosity-noclip-2);}.cls-136{filter:url(#luminosity-noclip);}</style><filter id="luminosity-noclip" x="244.29" y="-8229" width="9.36" height="32766" filterUnits="userSpaceOnUse" color-interpolation-filters="sRGB"><feFlood flood-color="#fff" result="bg"/><feBlend in="SourceGraphic" in2="bg"/></filter><mask id="mask" x="244.29" y="-8229" width="9.36" height="32766" maskUnits="userSpaceOnUse"><g class="cls-136"/></mask><linearGradient id="linear-gradient" x1="634.69" y1="412.94" x2="644.05" y2="412.94" gradientTransform="translate(-363.58 -156.01) rotate(3.55)" gradientUnits="userSpaceOnUse"><stop offset="0.13" stop-color="#f2f2f2"/><stop offset="1" stop-color="#fff"/></linearGradient><filter id="luminosity-noclip-2" x="491.63" y="-8229" width="9.36" height="32766" filterUnits="userSpaceOnUse" color-interpolation-filters="sRGB"><feFlood flood-color="#fff" result="bg"/><feBlend in="SourceGraphic" in2="bg"/></filter><mask id="mask-2" x="491.63" y="-8229" width="9.36" height="32766" maskUnits="userSpaceOnUse"><g class="cls-135"/></mask><linearGradient id="linear-gradient-2" x1="872.1" y1="245.7" x2="881.46" y2="245.7" xlink:href="#linear-gradient"/><filter id="luminosity-noclip-3" x="591.26" y="-8229" width="9.36" height="32766" filterUnits="userSpaceOnUse" color-interpolation-filters="sRGB"><feFlood flood-color="#fff" result="bg"/><feBlend in="SourceGraphic" in2="bg"/></filter><mask id="mask-3" x="591.26" y="-8229" width="9.36" height="32766" maskUnits="userSpaceOnUse"><g class="cls-134"/></mask><linearGradient id="linear-gradient-3" x1="968.86" y1="196.36" x2="978.22" y2="196.36" xlink:href="#linear-gradient"/><filter id="luminosity-noclip-4" x="151.03" y="-8229" width="9.36" height="32766" filterUnits="userSpaceOnUse" color-interpolation-filters="sRGB"><feFlood flood-color="#fff" result="bg"/><feBlend in="SourceGraphic" in2="bg"/></filter><mask id="mask-4" x="151.03" y="-8229" width="9.36" height="32766" maskUnits="userSpaceOnUse"><g class="cls-133"/></mask><linearGradient id="linear-gradient-4" x1="547.67" y1="516.24" x2="557.03" y2="516.24" xlink:href="#linear-gradient"/><filter id="luminosity-noclip-5" x="305.28" y="-8229" width="9.36" height="32766" filterUnits="userSpaceOnUse" color-interpolation-filters="sRGB"><feFlood flood-color="#fff" result="bg"/><feBlend in="SourceGraphic" in2="bg"/></filter><mask id="mask-5" x="305.28" y="-8229" width="9.36" height="32766" maskUnits="userSpaceOnUse"><g class="cls-132"/></mask><linearGradient id="linear-gradient-5" x1="696.93" y1="431.16" x2="706.29" y2="431.16" xlink:href="#linear-gradient"/><filter id="luminosity-noclip-6" x="155.31" y="-8229" width="91.01" height="32766" filterUnits="userSpaceOnUse" color-interpolation-filters="sRGB"><feFlood flood-color="#fff" result="bg"/><feBlend in="SourceGraphic" in2="bg"/></filter><mask id="mask-6" x="155.31" y="-8229" width="91.01" height="32766" maskUnits="userSpaceOnUse"><g class="cls-131"/></mask><linearGradient id="linear-gradient-6" x1="156.13" y1="468.14" x2="288" y2="336.26" gradientUnits="userSpaceOnUse"><stop offset="0"/><stop offset="1" stop-color="gray"/></linearGradient><filter id="luminosity-noclip-7" x="246.08" y="-8229" width="61.5" height="32766" filterUnits="userSpaceOnUse" color-interpolation-filters="sRGB"><feFlood flood-color="#fff" result="bg"/><feBlend in="SourceGraphic" in2="bg"/></filter><mask id="mask-7" x="246.08" y="-8229" width="61.5" height="32766" maskUnits="userSpaceOnUse"><g class="cls-130"/></mask><linearGradient id="linear-gradient-7" x1="234.53" y1="420.22" x2="311.45" y2="343.29" xlink:href="#linear-gradient-6"/><filter id="luminosity-noclip-8" x="307.58" y="-8229" width="45.07" height="32766" filterUnits="userSpaceOnUse" color-interpolation-filters="sRGB"><feFlood flood-color="#fff" result="bg"/><feBlend in="SourceGraphic" in2="bg"/></filter><mask id="mask-8" x="307.58" y="-8229" width="45.07" height="32766" maskUnits="userSpaceOnUse"><g class="cls-129"/></mask><linearGradient id="linear-gradient-8" x1="310.84" y1="408.31" x2="394.53" y2="324.61" xlink:href="#linear-gradient-6"/><filter id="luminosity-noclip-9" x="352.65" y="-8229" width="62.41" height="32766" filterUnits="userSpaceOnUse" color-interpolation-filters="sRGB"><feFlood flood-color="#fff" result="bg"/><feBlend in="SourceGraphic" in2="bg"/></filter><mask id="mask-9" x="352.65" y="-8229" width="62.41" height="32766" maskUnits="userSpaceOnUse"><g class="cls-128"/></mask><linearGradient id="linear-gradient-9" x1="362.01" y1="391.51" x2="456.41" y2="297.12" xlink:href="#linear-gradient-6"/><filter id="luminosity-noclip-10" x="415.06" y="-8229" width="80.42" height="32766" filterUnits="userSpaceOnUse" color-interpolation-filters="sRGB"><feFlood flood-color="#fff" result="bg"/><feBlend in="SourceGraphic" in2="bg"/></filter><mask id="mask-10" x="415.06" y="-8229" width="80.42" height="32766" maskUnits="userSpaceOnUse"><g class="cls-127"/></mask><linearGradient id="linear-gradient-10" x1="399.71" y1="396.94" x2="544.92" y2="251.73" gradientUnits="userSpaceOnUse"><stop offset="0"/><stop offset="1" stop-color="#4d4d4d"/></linearGradient><filter id="luminosity-noclip-11" x="495.48" y="-8229" width="100.46" height="32766" filterUnits="userSpaceOnUse" color-interpolation-filters="sRGB"><feFlood flood-color="#fff" result="bg"/><feBlend in="SourceGraphic" in2="bg"/></filter><mask id="mask-11" x="495.48" y="-8229" width="100.46" height="32766" maskUnits="userSpaceOnUse"><g class="cls-126"/></mask><linearGradient id="linear-gradient-11" x1="502.75" y1="344.14" x2="672.35" y2="174.53" gradientUnits="userSpaceOnUse"><stop offset="0"/><stop offset="1" stop-color="#999"/></linearGradient><filter id="luminosity-noclip-12" x="349.98" y="-8229" width="9.36" height="32766" filterUnits="userSpaceOnUse" color-interpolation-filters="sRGB"><feFlood flood-color="#fff" result="bg"/><feBlend in="SourceGraphic" in2="bg"/></filter><mask id="mask-12" x="349.98" y="-8229" width="9.36" height="32766" maskUnits="userSpaceOnUse"><g class="cls-125"/></mask><linearGradient id="linear-gradient-12" x1="739.16" y1="390.03" x2="748.52" y2="390.03" xlink:href="#linear-gradient"/><filter id="luminosity-noclip-13" x="411.87" y="-8229" width="9.36" height="32766" filterUnits="userSpaceOnUse" color-interpolation-filters="sRGB"><feFlood flood-color="#fff" result="bg"/><feBlend in="SourceGraphic" in2="bg"/></filter><mask id="mask-13" x="411.87" y="-8229" width="9.36" height="32766" maskUnits="userSpaceOnUse"><g class="cls-124"/></mask><linearGradient id="linear-gradient-13" x1="800.59" y1="380.67" x2="809.95" y2="380.67" xlink:href="#linear-gradient"/><linearGradient id="linear-gradient-14" x1="-3098.19" y1="1041.82" x2="-2344.39" y2="1041.82" gradientTransform="matrix(1, -0.01, -0.01, -1, 3109.7, 1329.07)" gradientUnits="userSpaceOnUse"><stop offset="0" stop-color="#f5f6f7" stop-opacity="0.5"/><stop offset="1" stop-color="#f5f6f7"/></linearGradient><linearGradient id="New_Gradient_Swatch_4" x1="551.83" y1="356.22" x2="973.85" y2="356.22" gradientTransform="translate(-363.58 -156.01) rotate(3.55)" gradientUnits="userSpaceOnUse"><stop offset="0" stop-color="#73a4d6"/><stop offset="0.95" stop-color="#8ff6fc"/><stop offset="1" stop-color="#90faff"/></linearGradient><filter id="luminosity-noclip-14" x="244.29" y="291.1" width="9.36" height="9.36" filterUnits="userSpaceOnUse" color-interpolation-filters="sRGB"><feFlood flood-color="#fff" result="bg"/><feBlend in="SourceGraphic" in2="bg"/></filter><mask id="mask-14" x="244.29" y="291.1" width="9.36" height="9.36" maskUnits="userSpaceOnUse"><g class="cls-1"><path class="cls-2" d="M253.64,296.07a4.68,4.68,0,1,1-4.38-5A4.68,4.68,0,0,1,253.64,296.07Z"/></g></mask><linearGradient id="linear-gradient-15" x1="634.69" y1="412.94" x2="644.05" y2="412.94" gradientTransform="translate(-363.58 -156.01) rotate(3.55)" gradientUnits="userSpaceOnUse"><stop offset="0.13" stop-color="#8ef5fc"/><stop offset="1" stop-color="#90faff"/></linearGradient><filter id="luminosity-noclip-15" x="151.03" y="388.81" width="9.36" height="9.36" filterUnits="userSpaceOnUse" color-interpolation-filters="sRGB"><feFlood flood-color="#fff" result="bg"/><feBlend in="SourceGraphic" in2="bg"/></filter><mask id="mask-15" x="151.03" y="388.81" width="9.36" height="9.36" maskUnits="userSpaceOnUse"><g class="cls-8"><path class="cls-9" d="M160.39,393.78a4.68,4.68,0,1,1-4.38-5A4.68,4.68,0,0,1,160.39,393.78Z"/></g></mask><linearGradient id="linear-gradient-16" x1="547.67" y1="516.24" x2="557.03" y2="516.24" xlink:href="#linear-gradient-15"/><filter id="luminosity-noclip-16" x="305.28" y="313.15" width="9.36" height="9.36" filterUnits="userSpaceOnUse" color-interpolation-filters="sRGB"><feFlood flood-color="#fff" result="bg"/><feBlend in="SourceGraphic" in2="bg"/></filter><mask id="mask-16" x="305.28" y="313.15" width="9.36" height="9.36" maskUnits="userSpaceOnUse"><g class="cls-10"><path class="cls-11" d="M314.63,318.12a4.68,4.68,0,1,1-4.38-5A4.68,4.68,0,0,1,314.63,318.12Z"/></g></mask><linearGradient id="linear-gradient-17" x1="696.93" y1="431.16" x2="706.29" y2="431.16" xlink:href="#linear-gradient-15"/><filter id="luminosity-noclip-17" x="349.98" y="274.71" width="9.36" height="9.36" filterUnits="userSpaceOnUse" color-interpolation-filters="sRGB"><feFlood flood-color="#fff" result="bg"/><feBlend in="SourceGraphic" in2="bg"/></filter><mask id="mask-17" x="349.98" y="274.71" width="9.36" height="9.36" maskUnits="userSpaceOnUse"><g class="cls-24"><path class="cls-25" d="M359.33,279.69a4.68,4.68,0,1,1-4.38-5A4.68,4.68,0,0,1,359.33,279.69Z"/></g></mask><linearGradient id="linear-gradient-18" x1="739.16" y1="390.03" x2="748.52" y2="390.03" xlink:href="#linear-gradient-15"/><filter id="luminosity-noclip-18" x="411.87" y="269.18" width="9.36" height="9.36" filterUnits="userSpaceOnUse" color-interpolation-filters="sRGB"><feFlood flood-color="#fff" result="bg"/><feBlend in="SourceGraphic" in2="bg"/></filter><mask id="mask-18" x="411.87" y="269.18" width="9.36" height="9.36" maskUnits="userSpaceOnUse"><g class="cls-26"><path class="cls-27" d="M421.23,274.15a4.68,4.68,0,1,1-4.38-5A4.69,4.69,0,0,1,421.23,274.15Z"/></g></mask><linearGradient id="linear-gradient-19" x1="800.59" y1="380.67" x2="809.95" y2="380.67" xlink:href="#linear-gradient-15"/><filter id="luminosity-noclip-19" x="491.63" y="138.9" width="9.36" height="9.36" filterUnits="userSpaceOnUse" color-interpolation-filters="sRGB"><feFlood flood-color="#fff" result="bg"/><feBlend in="SourceGraphic" in2="bg"/></filter><mask id="mask-19" x="491.63" y="138.9" width="9.36" height="9.36" maskUnits="userSpaceOnUse"><g class="cls-3"><path class="cls-4" d="M501,143.87a4.68,4.68,0,1,1-4.38-5A4.68,4.68,0,0,1,501,143.87Z"/></g></mask><linearGradient id="linear-gradient-20" x1="872.1" y1="245.7" x2="881.46" y2="245.7" xlink:href="#linear-gradient-15"/><filter id="luminosity-noclip-20" x="591.26" y="95.66" width="9.36" height="9.36" filterUnits="userSpaceOnUse" color-interpolation-filters="sRGB"><feFlood flood-color="#fff" result="bg"/><feBlend in="SourceGraphic" in2="bg"/></filter><mask id="mask-20" x="591.26" y="95.66" width="9.36" height="9.36" maskUnits="userSpaceOnUse"><g class="cls-5"><path class="cls-6" d="M600.61,100.63a4.68,4.68,0,1,1-4.38-5A4.68,4.68,0,0,1,600.61,100.63Z"/></g></mask><linearGradient id="linear-gradient-21" x1="968.86" y1="196.36" x2="978.22" y2="196.36" xlink:href="#linear-gradient-15"/><linearGradient id="linear-gradient-22" x1="-5360.7" y1="1176.58" x2="-5358.86" y2="1177.15" gradientTransform="matrix(47.99, 0, 0, -121.38, 257484.91, 143277.91)" gradientUnits="userSpaceOnUse"><stop offset="0" stop-color="#ff9292"/><stop offset="1" stop-color="#ffb59d"/></linearGradient><mask id="mask-21" x="200.26" y="373.14" width="61.4" height="139.7" maskUnits="userSpaceOnUse"><g id="mask-3-2" data-name="mask-3"><path id="path-2" class="cls-7" d="M211.44,427.73c1.52-12.57-2.11-33.81-10.89-54.59l35,3.34q-1.36,28.53-1.37,38.6T229,488.58a15.86,15.86,0,0,0,8.14,11.3c4,2.27,9.46,4.27,15.72,6.66,4.07,1.55,3.06,4.72-1.61,4.72H223.82q-4.15,0-7.33-9.29l-.74,9.72c-4.61,0-8.41.65-7.3-2.72l3-20.39C213.94,472.59,207,464.38,211.44,427.73Z"/></g></mask><linearGradient id="linear-gradient-23" x1="-5372.1" y1="1128.28" x2="-5373.14" y2="1127.17" gradientTransform="matrix(53.77, 0, 0, -21.92, 289137.41, 25221.23)" gradientUnits="userSpaceOnUse"><stop offset="0" stop-color="#ff8299"/><stop offset="1" stop-color="#cc2b32"/></linearGradient><mask id="mask-22" x="200.55" y="373.14" width="54.81" height="138.6" maskUnits="userSpaceOnUse"><g id="mask-3-3" data-name="mask-3"><path id="path-2-2" data-name="path-2" class="cls-7" d="M211.44,427.73c1.52-12.57-2.11-33.81-10.89-54.59l35,3.34q-1.36,28.53-1.37,38.6T229,488.58a15.86,15.86,0,0,0,8.14,11.3c4,2.27,9.46,4.27,15.72,6.66,4.07,1.55,3.06,4.72-1.61,4.72H223.82q-4.15,0-7.33-9.29l-.74,9.72c-4.61,0-8.41.65-7.3-2.72l3-20.39C213.94,472.59,207,464.38,211.44,427.73Z"/></g></mask><linearGradient id="linear-gradient-24" x1="-5360.79" y1="1176.58" x2="-5358.95" y2="1177.15" gradientTransform="matrix(47.99, 0, 0, -121.38, 257456.91, 143277.91)" xlink:href="#linear-gradient-22"/><mask id="mask-23" x="168.29" y="373.14" width="61.4" height="139.7" maskUnits="userSpaceOnUse"><g id="mask-6-2" data-name="mask-6"><path id="path-5" class="cls-7" d="M179.47,427.73c1.52-12.57-2.11-33.81-10.89-54.59l35,3.34q-1.38,28.53-1.37,38.6T197,488.58a15.87,15.87,0,0,0,8.13,11.3c4,2.27,9.47,4.27,15.73,6.66,4.07,1.55,3.06,4.72-1.62,4.72H191.84q-4.14,0-7.32-9.29l-.74,9.72c-4.61,0-8.42.65-7.3-2.72l3-20.39C182,472.59,175,464.38,179.47,427.73Z"/></g></mask><linearGradient id="linear-gradient-25" x1="-5372.17" y1="1128.28" x2="-5373.22" y2="1127.17" gradientTransform="matrix(53.77, 0, 0, -21.92, 289109.41, 25221.23)" xlink:href="#linear-gradient-23"/><mask id="mask-24" x="168.58" y="373.14" width="54.81" height="138.6" maskUnits="userSpaceOnUse"><g id="mask-6-3" data-name="mask-6"><path id="path-5-2" data-name="path-5" class="cls-7" d="M179.47,427.73c1.52-12.57-2.11-33.81-10.89-54.59l35,3.34q-1.38,28.53-1.37,38.6T197,488.58a15.87,15.87,0,0,0,8.13,11.3c4,2.27,9.47,4.27,15.73,6.66,4.07,1.55,3.06,4.72-1.62,4.72H191.84q-4.14,0-7.32-9.29l-.74,9.72c-4.61,0-8.42.65-7.3-2.72l3-20.39C182,472.59,175,464.38,179.47,427.73Z"/></g></mask><linearGradient id="linear-gradient-26" x1="-5387.66" y1="1173.23" x2="-5389.12" y2="1172.25" gradientTransform="matrix(63.3, 0, 0, -87.13, 341312.98, 102521.98)" gradientUnits="userSpaceOnUse"><stop offset="0" stop-color="#404683"/><stop offset="1" stop-color="#373a5b"/></linearGradient><mask id="mask-25" x="155.89" y="295.87" width="80.38" height="99.49" maskUnits="userSpaceOnUse"><g id="mask-9-2" data-name="mask-9"><path id="path-8" class="cls-7" d="M166.28,308.43c-6.49,21.7,2.8,74,2.8,81.47s59.74,7.09,67.18,0q-2.31-71.74-5.86-82C226.86,297.6,172.76,286.74,166.28,308.43Z"/></g></mask><linearGradient id="linear-gradient-27" x1="-5428.01" y1="1173.46" x2="-5427.17" y2="1174.59" gradientTransform="matrix(112.47, 0, 0, -95.89, 610616.9, 112842.36)" gradientUnits="userSpaceOnUse"><stop offset="0" stop-color="#6f4de2"/><stop offset="1" stop-color="#ff7c7c"/></linearGradient><mask id="mask-26" x="148.48" y="203.08" width="128.43" height="109.49" maskUnits="userSpaceOnUse"><g id="mask-12-2" data-name="mask-12"><path id="path-11" class="cls-7" d="M268.88,224.14q7.22,1.74,8,6.39c-8.81,24.29-13.86,35.31-22.1,35.31-5.57,0-15.41-6.72-26.27-18.14-1.48,7.3-2.93,14.57-3.67,20.63-1.84,14.91,2.42,21.83,6.74,39.78a7.59,7.59,0,0,1,.1,1.27c-4.22,0-27.69,7.17-66.24,0,7.45-24.78,9.19-26.5,9.14-35.9H159.68c-11.32,0-12.88-11.33-9.86-22.14s6.85-29.1,15.64-36.26c3.93-3.25,7.52-5.94,11.77-7.79a39.88,39.88,0,0,1,12.29-3c19.07-1.89,3-1.94,19.06,2.52q16,4.44,44.68,39.05Z"/></g></mask><mask id="mask-32" x="148.48" y="203.08" width="139.76" height="109.49" maskUnits="userSpaceOnUse"><g id="mask-12-8" data-name="mask-12"><path id="path-11-7" data-name="path-11" class="cls-7" d="M268.88,224.14q7.22,1.74,8,6.39c-8.81,24.29-13.86,35.31-22.1,35.31-5.57,0-15.41-6.72-26.27-18.14-1.48,7.3-2.93,14.57-3.67,20.63-1.84,14.91,2.42,21.83,6.74,39.78a7.59,7.59,0,0,1,.1,1.27c-4.22,0-27.69,7.17-66.24,0,7.45-24.78,9.19-26.5,9.14-35.9H159.68c-11.32,0-12.88-11.33-9.86-22.14s6.85-29.1,15.64-36.26c3.93-3.25,7.52-5.94,11.77-7.79a39.88,39.88,0,0,1,12.29-3c19.07-1.89,3-1.94,19.06,2.52q16,4.44,44.68,39.05Z"/></g></mask><mask id="mask-34" x="148.48" y="203.08" width="129.51" height="109.49" maskUnits="userSpaceOnUse"><g id="mask-12-10" data-name="mask-12"><path id="path-11-9" data-name="path-11" class="cls-7" d="M268.88,224.14q7.22,1.74,8,6.39c-8.81,24.29-13.86,35.31-22.1,35.31-5.57,0-15.41-6.72-26.27-18.14-1.48,7.3-2.93,14.57-3.67,20.63-1.84,14.91,2.42,21.83,6.74,39.78a7.59,7.59,0,0,1,.1,1.27c-4.22,0-27.69,7.17-66.24,0,7.45-24.78,9.19-26.5,9.14-35.9H159.68c-11.32,0-12.88-11.33-9.86-22.14s6.85-29.1,15.64-36.26c3.93-3.25,7.52-5.94,11.77-7.79a39.88,39.88,0,0,1,12.29-3c19.07-1.89,3-1.94,19.06,2.52q16,4.44,44.68,39.05Z"/></g></mask><linearGradient id="linear-gradient-28" x1="-5146.55" y1="1109.25" x2="-5145.49" y2="1110.15" gradientTransform="matrix(17, 0, 0, -16.25, 87672.88, 18196.77)" gradientUnits="userSpaceOnUse"><stop offset="0" stop-color="#321847"/><stop offset="1" stop-color="#834a88"/></linearGradient><linearGradient id="linear-gradient-29" x1="-5145.95" y1="1109.93" x2="-5146.65" y2="1108.79" gradientTransform="matrix(17, 0, 0, -16.25, 87677.88, 18200.84)" gradientUnits="userSpaceOnUse"><stop offset="0" stop-color="#ffb782"/><stop offset="1" stop-color="#eb4878"/></linearGradient><linearGradient id="linear-gradient-30" x1="-5316.83" y1="1151" x2="-5315.77" y2="1151.9" gradientTransform="matrix(35, 0, 0, -35, 186280.88, 40470.15)" xlink:href="#linear-gradient-28"/><linearGradient id="linear-gradient-31" x1="-5302.58" y1="1148.31" x2="-5304.01" y2="1148.72" gradientTransform="matrix(32.4, 0, 0, -32.74, 172032.91, 37807.25)" xlink:href="#linear-gradient-22"/><mask id="mask-38" x="177.23" y="189.15" width="37.69" height="37.38" maskUnits="userSpaceOnUse"><g id="mask-17-2" data-name="mask-17"><path id="path-16" class="cls-7" d="M187.37,204c-2.78,1.11-5.73,1.49-10.14,3.3,4,6.23,28.7,19.25,30.58,19.25,1,0,8.65-15.47,5.77-17.6-1.49-1.1-4.23-2.16-8.24-3.19l.43-9.51-13.61-7.08Q191.73,202.23,187.37,204Z"/></g></mask><linearGradient id="linear-gradient-32" x1="-5264.88" y1="1143.45" x2="-5263.98" y2="1144.44" gradientTransform="matrix(26.42, 0, 0, -29.28, 139305.22, 33680.45)" xlink:href="#linear-gradient-22"/><mask id="mask-39" x="186.15" y="164.98" width="30.5" height="37.26" maskUnits="userSpaceOnUse"><g id="mask-20-2" data-name="mask-20"><path id="path-19" class="cls-7" d="M216.24,180.1c-1.37,11.79-3.61,22.14-9,22.14-7.41,0-14.54-8.25-16.4-16.22l-.06-.26a3.69,3.69,0,0,1-.58,0,4.1,4.1,0,1,1,3.41-6.37c.22.1,0-11.45,13.26-10.58C217.18,169.53,216.42,178.52,216.24,180.1Z"/></g></mask><linearGradient id="linear-gradient-33" x1="-5066.26" y1="1116.92" x2="-5065.36" y2="1117.91" gradientTransform="matrix(13.7, 0, 0, -18.24, 69689.03, 20603.01)" xlink:href="#linear-gradient-22"/><mask id="mask-40" x="269.38" y="208.91" width="15.65" height="22.13" maskUnits="userSpaceOnUse"><g id="mask-23-2" data-name="mask-23"><path id="path-22" class="cls-7" d="M273.42,215.55c2-2.43,1.05-6.64,3.3-6.64a3.13,3.13,0,0,1,2.06,2.13,9.8,9.8,0,0,1,0,3.25q4.52.44,5.58,1.72c1.11,1.34.64,6.74,0,8.52-.91,2.48-2.09,2.48-4.63,3.26a16.91,16.91,0,0,0-3.54,1.85,3.73,3.73,0,0,1-3.26-.94,15.17,15.17,0,0,1-3.55-4.17Q271.38,218,273.42,215.55Z"/></g></mask><linearGradient id="linear-gradient-34" x1="270.37" y1="226.38" x2="279.21" y2="226.38" gradientTransform="matrix(1, 0, 0, 1, 0, 0)" xlink:href="#linear-gradient-22"/><mask id="mask-41" x="269.38" y="208.91" width="15.65" height="20.83" maskUnits="userSpaceOnUse"><g id="mask-23-3" data-name="mask-23"><path id="path-22-2" data-name="path-22" class="cls-7" d="M273.42,215.55c2-2.43,1.05-6.64,3.3-6.64a3.13,3.13,0,0,1,2.06,2.13,9.8,9.8,0,0,1,0,3.25q4.52.44,5.58,1.72c1.11,1.34.64,6.74,0,8.52-.91,2.48-2.09,2.48-4.63,3.26a16.91,16.91,0,0,0-3.54,1.85,3.73,3.73,0,0,1-3.26-.94,15.17,15.17,0,0,1-3.55-4.17Q271.38,218,273.42,215.55Z"/></g></mask><linearGradient id="linear-gradient-35" x1="274.56" y1="221.05" x2="279.82" y2="221.05" gradientTransform="matrix(1, 0, 0, 1, 0, 0)" xlink:href="#linear-gradient-22"/><linearGradient id="linear-gradient-36" x1="-5342.13" y1="1159.01" x2="-5342.13" y2="1157.87" gradientTransform="matrix(41.63, 0, 0, -44.05, 222643.23, 51287.33)" gradientUnits="userSpaceOnUse"><stop offset="0" stop-color="#a3eded"/><stop offset="1" stop-color="#9fcfff"/></linearGradient><linearGradient id="linear-gradient-37" x1="-5187.6" y1="1101.14" x2="-5186.71" y2="1102.14" gradientTransform="matrix(19.4, 0, 0, -14.93, 100821.76, 16716.29)" xlink:href="#linear-gradient-22"/><linearGradient id="linear-gradient-38" x1="-5254.38" y1="1151.61" x2="-5253.41" y2="1152.7" gradientTransform="matrix(26.68, 0, 0, -36.1, 140720.56, 41788.32)" xlink:href="#linear-gradient-22"/><linearGradient id="linear-gradient-39" x1="-5311.47" y1="1148.47" x2="-5310.32" y2="1149.45" gradientTransform="matrix(35.89, 0, 0, -32.7, 191181.76, 37739.49)" xlink:href="#linear-gradient-28"/><linearGradient id="linear-gradient-40" x1="-5335.75" y1="1104.46" x2="-5334.7" y2="1102.4" gradientTransform="matrix(41.82, 0, 0, -15.87, 223613.08, 18031.5)" gradientUnits="userSpaceOnUse"><stop offset="0" stop-color="#ce8ba0"/><stop offset="1" stop-color="#875151"/></linearGradient><mask id="mask-42" x="476.04" y="517.62" width="51.97" height="19.74" maskUnits="userSpaceOnUse"><g id="mask-5-2" data-name="mask-5"><path id="path-4" class="cls-7" d="M503.84,517.62q-2.25,9.17-15.91,9.86t-11.64,9.86h45.65q7.53,0,5.71-5.49l-3.77-14.23Z"/></g></mask><linearGradient id="linear-gradient-41" x1="-5655.88" y1="1104.44" x2="-5654.83" y2="1102.38" gradientTransform="translate(-189664.19 18031.5) rotate(180) scale(33.64 15.87)" xlink:href="#linear-gradient-40"/><mask id="mask-43" x="567.48" y="517.62" width="41.8" height="19.74" maskUnits="userSpaceOnUse"><g id="mask-7-2" data-name="mask-7"><path id="path-6" class="cls-7" d="M579.92,517.62a31.64,31.64,0,0,1-8.83,9.86c-5.8,4.37-3.59,9.86-.42,9.86h32.56q7.53,0,5.7-5.49l-9-14.23Z"/></g></mask><linearGradient id="linear-gradient-42" x1="-5724.45" y1="1101.46" x2="-5723.48" y2="1102.55" gradientTransform="translate(-138246.14 17053.58) rotate(180) scale(24.26 15.19)" xlink:href="#linear-gradient-22"/><linearGradient id="linear-gradient-43" x1="-5403.38" y1="1180.14" x2="-5404.97" y2="1179.08" gradientTransform="matrix(81.59, 0, 0, -166.46, 441507.92, 196773.15)" xlink:href="#linear-gradient-26"/><mask id="mask-44" x="500.38" y="312.42" width="101.39" height="206.85" maskUnits="userSpaceOnUse"><g id="mask-12-14" data-name="mask-12"><path id="path-11-13" data-name="path-11" class="cls-7" d="M528.77,312.42c-15.74,74.89-10.38,70.4-18.24,116-1.77,10.24-.86,22.12-2.92,32.39-3.3,16.33-1.35,30.3-5.41,46.69-1,3.89-4,10,.88,11s19.35.63,22.53.63,1.47-6.58,2.71-9.81q12-31.44,13.59-57,1.8-29.52,16.23-84.27,11.29,45.71,11.29,81.88c0,18.36,2.94,38.84,5,55.65.53,4.35-2.92,12.21,2,12.95s17.4.75,20.77.63,2.52-10.41,4.24-21.67-3.19-36.18-1.82-76.83q1.36-40.65-7.4-106.52Z"/></g></mask><linearGradient id="linear-gradient-44" x1="-5124.18" y1="1120.19" x2="-5123.21" y2="1121.28" gradientTransform="matrix(16.85, 0, 0, -19.56, 86865.54, 22273.89)" xlink:href="#linear-gradient-22"/><mask id="mask-46" x="517.8" y="333.24" width="22.37" height="24.31" maskUnits="userSpaceOnUse"><g id="mask-14-2" data-name="mask-14"><path id="path-13" class="cls-7" d="M524.56,334.65q-8.37,10.38-6.37,15.57c2,5.19,12.06,11.36,17.13,3.8,2.32-3.47-4.85-1.34-3.51-2.84s1.54-1.11,4.43-4.27c3.77-4.12,1.3-6.18,2.32-9.79Q540.33,330.9,524.56,334.65Z"/></g></mask><linearGradient id="linear-gradient-45" x1="-5416.19" y1="1175.47" x2="-5415.75" y2="1176.59" gradientTransform="matrix(97.04, 0, 0, -111.12, 526118.82, 130935.76)" gradientUnits="userSpaceOnUse"><stop offset="0" stop-color="#5d63d3"/><stop offset="1" stop-color="#b986ff"/></linearGradient><mask id="mask-47" x="523.1" y="197.33" width="120.58" height="141.56" maskUnits="userSpaceOnUse"><g id="mask-17-3" data-name="mask-17"><path id="path-16-2" data-name="path-16" class="cls-7" d="M538.73,204.83c8.93-2.85,30.7-6.14,52.11-2.21a28.36,28.36,0,0,1,16.47,9.15c20.39,21.16,28.71,38.41,33.88,44.75q5.16,6.35-.41,13.67c-9.77,14.17-16.61,25-28.8,37.22-.69.7-1.81,3.48-3.73,4.47q-7.29,0-12.69-11.13Q613.14,273,618.4,266.33q-12.85-13.12-21.83-19.72-4.38,34.27-4.43,44.7c0,10.23,1.89,19.35,1.85,20.57-.11,3.71,3.75,10.38-10.61,10.38s-20.76-1.91-35.12-1.91c-1.47,0-4.42,18.54-8.45,18.54q-9.6,0-16-4.75c-3.19-1.25,4.74-29.07,4.74-71.35l-1.52-40C525.87,210.45,532.77,206.73,538.73,204.83Z"/></g></mask><mask id="mask-48" x="523.1" y="200.81" width="120.58" height="138.08" maskUnits="userSpaceOnUse"><g id="mask-17-4" data-name="mask-17"><path id="path-16-3" data-name="path-16" class="cls-7" d="M538.73,204.83c8.93-2.85,30.7-6.14,52.11-2.21a28.36,28.36,0,0,1,16.47,9.15c20.39,21.16,28.71,38.41,33.88,44.75q5.16,6.35-.41,13.67c-9.77,14.17-16.61,25-28.8,37.22-.69.7-1.81,3.48-3.73,4.47q-7.29,0-12.69-11.13Q613.14,273,618.4,266.33q-12.85-13.12-21.83-19.72-4.38,34.27-4.43,44.7c0,10.23,1.89,19.35,1.85,20.57-.11,3.71,3.75,10.38-10.61,10.38s-20.76-1.91-35.12-1.91c-1.47,0-4.42,18.54-8.45,18.54q-9.6,0-16-4.75c-3.19-1.25,4.74-29.07,4.74-71.35l-1.52-40C525.87,210.45,532.77,206.73,538.73,204.83Z"/></g></mask><linearGradient id="linear-gradient-46" x1="-5384.65" y1="1163.26" x2="-5384.65" y2="1162.02" gradientTransform="matrix(64.24, 0, 0, -52.27, 346470.38, 61103.04)" xlink:href="#linear-gradient-36"/><mask id="mask-50" x="495.63" y="295.11" width="79.83" height="64.96" maskUnits="userSpaceOnUse"><g id="mask-20-3" data-name="mask-20"><path id="path-19-2" data-name="path-19" class="cls-7" d="M531.05,351.51q5.88-4.93,6.7-6.64t.29-6c2.2.33,3.89-.93,5.08-3.8s3.64-12.9,7.34-30.08l25,6.36-14.83,48.7Zm-4.34-52.06q-4.05,33.78-2.16,35.19-6.51,8.16-6.75,13.48l-22.17-5.72,12.08-47.29Z"/></g></mask><linearGradient id="linear-gradient-47" x1="-5375.31" y1="366.3" x2="-5374.25" y2="367.67" gradientTransform="matrix(32.12, 0, 0, -35.41, 172952.18, 13084.15)" gradientUnits="userSpaceOnUse"><stop offset="0" stop-color="#ffcfaa"/><stop offset="1" stop-color="#fa6eb9"/></linearGradient><linearGradient id="linear-gradient-48" x1="-5181.9" y1="303.08" x2="-5182.67" y2="302.28" gradientTransform="matrix(15.65, 0, 0, -4.94, 81416.9, 1603.05)" gradientUnits="userSpaceOnUse"><stop offset="0" stop-color="#e6aaff"/><stop offset="1" stop-color="#3488ed"/></linearGradient><linearGradient id="linear-gradient-49" x1="673.52" y1="156.49" x2="724.74" y2="156.49" gradientUnits="userSpaceOnUse"><stop offset="0" stop-color="#39abc5"/><stop offset="1" stop-color="#a8eb9d"/></linearGradient><linearGradient id="linear-gradient-50" x1="-5441.29" y1="366.66" x2="-5441.83" y2="365.55" gradientTransform="matrix(48.2, 0, 0, -43.2, 262351.68, 16026.37)" xlink:href="#linear-gradient-48"/><linearGradient id="linear-gradient-51" x1="-5407.04" y1="368.39" x2="-5406.97" y2="369.63" gradientTransform="matrix(40, 0, 0, -38.87, 216762, 14391.55)" gradientUnits="userSpaceOnUse"><stop offset="0" stop-color="#ff90d7"/><stop offset="1" stop-color="#906efa"/></linearGradient><linearGradient id="linear-gradient-52" x1="-5307.22" y1="362.34" x2="-5306.28" y2="363.56" gradientTransform="matrix(24, 0, 0, -22.47, 127853, 8210.13)" xlink:href="#linear-gradient-47"/><filter id="luminosity-noclip-21" x="155.31" y="297.46" width="91.01" height="160.96" filterUnits="userSpaceOnUse" color-interpolation-filters="sRGB"><feFlood flood-color="#fff" result="bg"/><feBlend in="SourceGraphic" in2="bg"/></filter><mask id="mask-51" x="155.31" y="297.46" width="91.01" height="160.96" maskUnits="userSpaceOnUse"><g class="cls-12"><polygon class="cls-13" points="155.31 392.52 246.32 297.46 246.32 458.42 155.37 458.42 155.31 392.52"/></g></mask><linearGradient id="linear-gradient-53" x1="156.13" y1="468.14" x2="288" y2="336.26" gradientUnits="userSpaceOnUse"><stop offset="0" stop-color="#73a4d6"/><stop offset="1" stop-color="#90faff"/></linearGradient><filter id="luminosity-noclip-22" x="246.08" y="297.41" width="61.5" height="161.01" filterUnits="userSpaceOnUse" color-interpolation-filters="sRGB"><feFlood flood-color="#fff" result="bg"/><feBlend in="SourceGraphic" in2="bg"/></filter><mask id="mask-52" x="246.08" y="297.41" width="61.5" height="161.01" maskUnits="userSpaceOnUse"><g class="cls-14"><polygon class="cls-15" points="246.08 297.41 246.08 297.41 307.58 319.64 307.58 458.42 246.32 458.42 246.08 297.41"/></g></mask><linearGradient id="linear-gradient-54" x1="234.53" y1="420.22" x2="311.45" y2="343.29" xlink:href="#linear-gradient-53"/><filter id="luminosity-noclip-23" x="307.58" y="280.89" width="45.07" height="177.53" filterUnits="userSpaceOnUse" color-interpolation-filters="sRGB"><feFlood flood-color="#fff" result="bg"/><feBlend in="SourceGraphic" in2="bg"/></filter><mask id="mask-53" x="307.58" y="280.89" width="45.07" height="177.53" maskUnits="userSpaceOnUse"><g class="cls-16"><polygon class="cls-17" points="307.58 319.64 307.58 319.64 352.65 280.89 352.65 458.42 307.58 458.42 307.58 319.64"/></g></mask><linearGradient id="linear-gradient-55" x1="310.84" y1="408.31" x2="394.53" y2="324.61" xlink:href="#linear-gradient-53"/><filter id="luminosity-noclip-24" x="352.65" y="275.31" width="62.41" height="183.14" filterUnits="userSpaceOnUse" color-interpolation-filters="sRGB"><feFlood flood-color="#fff" result="bg"/><feBlend in="SourceGraphic" in2="bg"/></filter><mask id="mask-54" x="352.65" y="275.31" width="62.41" height="183.14" maskUnits="userSpaceOnUse"><g class="cls-18"><polygon class="cls-19" points="352.65 280.89 352.65 280.89 415.06 275.31 415.06 458.45 352.65 458.45 352.65 280.89"/></g></mask><linearGradient id="linear-gradient-56" x1="362.01" y1="391.51" x2="456.41" y2="297.12" xlink:href="#linear-gradient-53"/><filter id="luminosity-noclip-25" x="415.06" y="143.94" width="80.42" height="314.48" filterUnits="userSpaceOnUse" color-interpolation-filters="sRGB"><feFlood flood-color="#fff" result="bg"/><feBlend in="SourceGraphic" in2="bg"/></filter><mask id="mask-55" x="415.06" y="143.94" width="80.42" height="314.48" maskUnits="userSpaceOnUse"><g class="cls-20"><polygon class="cls-21" points="495.48 143.94 495.48 458.42 415.06 458.42 415.06 275.31 415.06 275.31 495.48 143.94"/></g></mask><linearGradient id="linear-gradient-57" x1="399.71" y1="396.94" x2="544.92" y2="251.73" xlink:href="#linear-gradient-53"/><filter id="luminosity-noclip-26" x="495.48" y="100.34" width="100.46" height="358.08" filterUnits="userSpaceOnUse" color-interpolation-filters="sRGB"><feFlood flood-color="#fff" result="bg"/><feBlend in="SourceGraphic" in2="bg"/></filter><mask id="mask-56" x="495.48" y="100.34" width="100.46" height="358.08" maskUnits="userSpaceOnUse"><g class="cls-22"><polygon class="cls-23" points="495.48 458.42 495.48 143.94 495.48 143.94 595.94 100.34 595.94 458.42 495.48 458.42"/></g></mask><linearGradient id="linear-gradient-58" x1="502.75" y1="344.14" x2="672.35" y2="174.53" gradientUnits="userSpaceOnUse"><stop offset="0" stop-color="#73a4d6"/><stop offset="1" stop-color="#90faff"/></linearGradient><linearGradient id="linear-gradient-59" x1="636.36" y1="443.62" x2="688.47" y2="443.62" gradientUnits="userSpaceOnUse"><stop offset="0" stop-color="#0cac9d"/><stop offset="1" stop-color="#009be0"/></linearGradient><linearGradient id="linear-gradient-60" x1="674.59" y1="472.69" x2="721.7" y2="472.69" gradientUnits="userSpaceOnUse"><stop offset="0" stop-color="#3076a1"/><stop offset="1" stop-color="#639c38"/></linearGradient><linearGradient id="linear-gradient-61" x1="665.84" y1="451.09" x2="707.03" y2="451.09" xlink:href="#linear-gradient-59"/></defs><g class="cls-28"><g id="Layer_1" data-name="Layer 1"><path class="cls-29" d="M731.05,412.59c-61.06,97.43-153,146.22-266.59,157C309.34,584.2,326.22,456.61,168.71,456.38c-140.07-.2-236.24-139.72-88.23-296.12C240.12-8.43,540.2-4.24,678.79,132.32,749.88,202.37,791.12,316.73,731.05,412.59Z"/><polygon class="cls-30" points="156.21 393.96 155.22 393.02 249.02 295.05 309.58 316.82 355.11 278.72 416.07 272.97 496.06 143.1 595.67 99.71 596.21 100.96 497 144.18 416.88 274.26 355.66 280.04 309.85 318.36 249.4 296.63 156.21 393.96"/><g class="cls-31"><path class="cls-32" d="M253.64,296.07a4.68,4.68,0,1,1-4.38-5A4.68,4.68,0,0,1,253.64,296.07Z"/></g><g class="cls-33"><path class="cls-34" d="M160.39,393.78a4.68,4.68,0,1,1-4.38-5A4.68,4.68,0,0,1,160.39,393.78Z"/></g><g class="cls-35"><path class="cls-36" d="M314.63,318.12a4.68,4.68,0,1,1-4.38-5A4.68,4.68,0,0,1,314.63,318.12Z"/></g><g class="cls-37"><path class="cls-38" d="M359.33,279.69a4.68,4.68,0,1,1-4.38-5A4.68,4.68,0,0,1,359.33,279.69Z"/></g><g class="cls-39"><path class="cls-40" d="M421.23,274.15a4.68,4.68,0,1,1-4.38-5A4.69,4.69,0,0,1,421.23,274.15Z"/></g><g class="cls-41"><path class="cls-42" d="M501,143.87a4.68,4.68,0,1,1-4.38-5A4.68,4.68,0,0,1,501,143.87Z"/></g><g class="cls-43"><path class="cls-44" d="M600.61,100.63a4.68,4.68,0,1,1-4.38-5A4.68,4.68,0,0,1,600.61,100.63Z"/></g><g id="Dini-pose-2"><g id="Legs"><g id="Path-24-Copy"><g id="Path"><path class="cls-45" d="M211.44,427.73c1.52-12.57-2.11-33.81-10.89-54.59l35,3.34q-1.36,28.53-1.37,38.6T229,488.58a15.86,15.86,0,0,0,8.14,11.3c4,2.27,9.46,4.27,15.72,6.66,4.07,1.55,3.06,4.72-1.61,4.72H223.82q-4.15,0-7.33-9.29l-.74,9.72c-4.61,0-8.41.65-7.3-2.72l3-20.39C213.94,472.59,207,464.38,211.44,427.73Z"/></g><g class="cls-46"><path id="Path-72" class="cls-47" d="M207.39,489.81q26.79,26.19,30.84,5.47t23.43,16l-61.4,1.56Z"/></g><g class="cls-48"><path id="Path-76" class="cls-49" d="M235.47,391.25q-16.69,8.65-25.79,8.65t3.43-13.09Z"/></g></g><g id="Path-24"><path class="cls-50" d="M179.47,427.73c1.52-12.57-2.11-33.81-10.89-54.59l35,3.34q-1.38,28.53-1.37,38.6T197,488.58a15.87,15.87,0,0,0,8.13,11.3c4,2.27,9.47,4.27,15.73,6.66,4.07,1.55,3.06,4.72-1.62,4.72H191.84q-4.14,0-7.32-9.29l-.74,9.72c-4.61,0-8.42.65-7.3-2.72l3-20.39C182,472.59,175,464.38,179.47,427.73Z"/><g class="cls-51"><path class="cls-52" d="M175.42,489.81q26.78,26.19,30.84,5.47t23.43,16l-61.4,1.56Z"/></g><g class="cls-53"><path class="cls-49" d="M203.49,391.25q-16.69,8.65-25.78,8.65t3.42-13.09Z"/></g></g></g><g id="Skirt"><g id="Path-75"><g id="Path-70"><path class="cls-54" d="M166.28,308.43c-6.49,21.7,2.8,74,2.8,81.47s59.74,7.09,67.18,0q-2.31-71.74-5.86-82C226.86,297.6,172.76,286.74,166.28,308.43Z"/></g><g class="cls-55"><path id="Path-16-5" data-name="Path-16" class="cls-56" d="M231.79,301.33q-.87,15.84-25,15.84c-24.18,0-1.86,8.08-26.56,14.32s-2.55,27.29-17.57,27.29q-15,0,3.49-55.7Z"/></g></g></g><g id="Shirt"><path class="cls-57" d="M268.88,224.14q7.22,1.74,8,6.39c-8.81,24.29-13.86,35.31-22.1,35.31-5.57,0-15.41-6.72-26.27-18.14-1.48,7.3-2.93,14.57-3.67,20.63-1.84,14.91,2.42,21.83,6.74,39.78a7.59,7.59,0,0,1,.1,1.27c-4.22,0-27.69,7.17-66.24,0,7.45-24.78,9.19-26.5,9.14-35.9H159.68c-11.32,0-12.88-11.33-9.86-22.14s6.85-29.1,15.64-36.26c3.93-3.25,7.52-5.94,11.77-7.79a39.88,39.88,0,0,1,12.29-3c19.07-1.89,3-1.94,19.06,2.52q16,4.44,44.68,39.05Z"/><g class="cls-58"><path id="Path-47" class="cls-59" d="M169.52,273.68q23.6-.49,35.52-1.22t14.79-1.84q-16.15,5.7-21.8,5.71c-5.65,0-5.48-4.1-11.67,4.4s-11.1-2.34-16.84,13.75Q163.76,310.56,169.52,273.68Z"/></g><g class="cls-58"><path id="Path-48" class="cls-59" d="M205.77,259.65l-36.25-5.86L176,226.22q5.17,5.86,1,16.72c-4.13,10.85,6.75.76,10.58,7.85Q191.46,257.89,205.77,259.65Z"/></g><g class="cls-58"><circle id="Oval" class="cls-60" cx="208.63" cy="234.78" r="1.71"/></g><g class="cls-58"><circle id="Oval-Copy-53" class="cls-60" cx="210.91" cy="246.2" r="1.71"/></g><g class="cls-58"><path id="Path-6-2" data-name="Path-6" class="cls-59" d="M228,251.2c2.68-14.61-.85-16-9.72-34.59q12.39,15.28,13.31,27c.92,11.73,6.82.46,10.6,13.62s9.69,8.5,11.92,12q2.23,3.53-8.14,6.53A71.92,71.92,0,0,1,228,251.2Z"/></g><g class="cls-58"><path id="Path-13-2" data-name="Path-13" class="cls-59" d="M158.36,303q3-7.1,11.59-10.48l-.71,8.15-8.49,3.6Z"/></g><g class="cls-61"><path id="Path-20" class="cls-59" d="M273.42,219.25q1.36,9.57,7,9.56t7.86-5.77l-12.08-7.22Z"/></g><g class="cls-58"><path id="Path-66" class="cls-62" d="M157.46,289.83a41,41,0,0,0,10.73-8.8"/></g><g class="cls-63"><path id="Path-67" class="cls-64" d="M266.64,223.55a.56.56,0,0,1,.48-.64.58.58,0,0,1,.65.49c.05.37.11.74.18,1.09a.57.57,0,0,1-.44.67.59.59,0,0,1-.68-.45C266.76,224.34,266.69,224,266.64,223.55Zm.85,3.46a.57.57,0,0,1,1.07-.42,7.32,7.32,0,0,0,.45,1,.57.57,0,0,1-1,.54A11.13,11.13,0,0,1,267.49,227Zm2,3.08a.56.56,0,0,1,0-.8.57.57,0,0,1,.81,0,6.15,6.15,0,0,0,.8.65.58.58,0,0,1,.15.8.56.56,0,0,1-.79.15A6.5,6.5,0,0,1,269.47,230.09Zm3.34,1.83a.57.57,0,0,1-.42-.69.58.58,0,0,1,.69-.42,7.2,7.2,0,0,0,1.05.19.57.57,0,1,1-.12,1.13A7.51,7.51,0,0,1,272.81,231.92Zm3.51.23a.57.57,0,0,1-.09-1.13c.35,0,.72-.08,1.09-.13a.57.57,0,1,1,.18,1.12C277.09,232.08,276.7,232.12,276.32,232.15Z"/></g><g class="cls-58"><path id="Path-68" class="cls-64" d="M175,208.15a.57.57,0,0,1,.88-.73c.23.28.48.57.73.85a.57.57,0,0,1,0,.81.56.56,0,0,1-.8-.05C175.52,208.74,175.26,208.44,175,208.15Zm2.34,2.57a.57.57,0,1,1,.81-.81c.26.27.53.53.81.79a.58.58,0,0,1,0,.81.57.57,0,0,1-.8,0Zm2.54,2.37a.57.57,0,1,1,.75-.86l.86.73a.57.57,0,0,1-.74.88Zm2.68,2.21a.57.57,0,0,1,.7-.91l.9.69a.57.57,0,1,1-.69.91Zm2.79,2.06a.58.58,0,0,1-.14-.8.56.56,0,0,1,.79-.13l.94.64a.59.59,0,0,1,.15.8.58.58,0,0,1-.8.14C186,217.8,185.68,217.58,185.37,217.36Zm2.84,1.91a.57.57,0,0,1,.62-1l1,.61a.58.58,0,0,1,.18.79.57.57,0,0,1-.79.18C188.85,219.69,188.53,219.48,188.21,219.27Zm2.94,1.82a.57.57,0,0,1,.58-1l1,.57a.57.57,0,1,1-.57,1Zm3,1.71a.57.57,0,0,1-.23-.77.58.58,0,0,1,.78-.23l1,.54a.57.57,0,0,1-.54,1Zm3.06,1.61a.56.56,0,0,1-.25-.76.58.58,0,0,1,.77-.26l1,.51a.56.56,0,0,1,.26.76.57.57,0,0,1-.76.27Zm3.07,1.49a.58.58,0,0,1-.28-.76.59.59,0,0,1,.76-.28l1,.47a.58.58,0,0,1,.28.76.56.56,0,0,1-.75.28Zm3.17,1.38a.57.57,0,0,1-.31-.74.57.57,0,0,1,.75-.31l1.05.41a.57.57,0,0,1,.32.74.56.56,0,0,1-.73.33Zm3.28,1.2a.57.57,0,0,1,.33-1.09,10.27,10.27,0,0,0,1.05.27.57.57,0,0,1,.45.67.58.58,0,0,1-.67.46A9.87,9.87,0,0,1,206.73,228.48Zm3.62-1a.57.57,0,0,1-.8.1.58.58,0,0,1-.1-.81,10.11,10.11,0,0,0,.64-.88.57.57,0,1,1,.95.62C210.8,226.89,210.57,227.21,210.35,227.49Zm1.88-3a.57.57,0,0,1-1-.54c.17-.32.34-.65.51-1a.58.58,0,0,1,.77-.26.57.57,0,0,1,.26.76C212.58,223.83,212.41,224.18,212.23,224.51Zm1.5-3.17a.56.56,0,0,1-.74.3.58.58,0,0,1-.31-.75c.15-.34.29-.69.43-1a.57.57,0,0,1,1.07.42C214,220.63,213.89,221,213.73,221.34Zm1.24-3.21a.58.58,0,0,1-.73.36.56.56,0,0,1-.35-.73c.12-.36.24-.71.35-1.07a.56.56,0,0,1,.71-.37.57.57,0,0,1,.38.71Zm1-3.36a.56.56,0,0,1-.69.42.58.58,0,0,1-.42-.69c.09-.37.17-.73.24-1.09a.59.59,0,0,1,.68-.45.56.56,0,0,1,.44.67C216.13,214,216.05,214.39,216,214.77Zm.59-3.47a.56.56,0,0,1-.61.52.57.57,0,0,1-.53-.61,10.3,10.3,0,0,0,0-1.09.58.58,0,0,1,1.15,0C216.59,210.49,216.57,210.88,216.54,211.3Zm-.38-3.67a.58.58,0,0,1-.31.75.56.56,0,0,1-.74-.32,2.23,2.23,0,0,0-.5-.76.57.57,0,0,1,.8-.82A3.28,3.28,0,0,1,216.16,207.63Z"/></g><g class="cls-58"><path id="Path-69" class="cls-64" d="M164.79,307.86a.58.58,0,0,1-.48-.66.58.58,0,0,1,.66-.47l1.12.18a.57.57,0,1,1-.17,1.12Zm3.39.52a.57.57,0,0,1-.48-.65.56.56,0,0,1,.65-.48l1.12.16a.58.58,0,0,1,.49.65.57.57,0,0,1-.65.48Zm3.4.48a.58.58,0,0,1-.49-.65.56.56,0,0,1,.64-.48l1.13.15a.57.57,0,0,1-.15,1.13Zm3.4.43a.56.56,0,0,1-.49-.63.57.57,0,0,1,.63-.5l1.13.14a.56.56,0,0,1,.5.63.57.57,0,0,1-.63.5Zm3.42.39a.57.57,0,0,1-.51-.62.58.58,0,0,1,.63-.51l1.13.12a.57.57,0,0,1-.11,1.13Zm3.42.35a.57.57,0,1,1,.1-1.14l1.14.1a.58.58,0,0,1,.52.62.59.59,0,0,1-.62.52Zm3.42.28a.56.56,0,0,1-.52-.61.57.57,0,0,1,.61-.53l1.13.09a.57.57,0,0,1,.53.61.57.57,0,0,1-.61.53Zm3.43.23a.56.56,0,0,1-.53-.6.58.58,0,0,1,.6-.54l1.14.07a.57.57,0,0,1,.54.6.58.58,0,0,1-.6.54Zm3.43.17a.57.57,0,1,1,.05-1.14l1.13,0a.58.58,0,0,1,.56.59.57.57,0,0,1-.59.55Zm3.44.1a.56.56,0,0,1-.56-.58.58.58,0,0,1,.58-.56l1.14,0a.57.57,0,0,1,.56.58.56.56,0,0,1-.57.56Zm3.44,0a.56.56,0,0,1-.57-.56.57.57,0,0,1,.57-.58h1.13a.56.56,0,0,1,.58.56.58.58,0,0,1-.56.58Zm3.44,0a.58.58,0,0,1-.58-.56.56.56,0,0,1,.55-.58l1.14,0a.57.57,0,1,1,0,1.14Zm3.45-.14a.56.56,0,0,1-.6-.54.57.57,0,0,1,.54-.6l1.13-.06a.57.57,0,1,1,.07,1.14Zm3.44-.22a.58.58,0,0,1-.62-.53.57.57,0,0,1,.53-.61l1.13-.1a.57.57,0,0,1,.1,1.14Zm3.41-.33a.57.57,0,0,1-.63-.5.57.57,0,0,1,.5-.64l1.13-.13a.58.58,0,0,1,.64.5.59.59,0,0,1-.5.64Zm3.42-.44a.56.56,0,0,1-.65-.48.57.57,0,0,1,.48-.65l1.12-.17a.57.57,0,1,1,.18,1.13Zm3.4-.56a.57.57,0,0,1-.21-1.13c.38-.06.75-.14,1.12-.21a.57.57,0,0,1,.22,1.12Zm3.39-.7a.57.57,0,1,1-.26-1.11l1.11-.26a.57.57,0,0,1,.69.42.59.59,0,0,1-.42.69Zm3.35-.85a.56.56,0,0,1-.7-.39.57.57,0,0,1,.39-.71l1.09-.31a.57.57,0,0,1,.33,1.1Zm3.31-1a.57.57,0,0,1-.36-1.08l1.07-.37a.57.57,0,0,1,.38,1.08Zm3.26-1.18a.58.58,0,0,1-.74-.32.59.59,0,0,1,.32-.75l.66-.26a.57.57,0,0,1,.43,1Z"/></g><g class="cls-58"><path id="Path-120" class="cls-64" d="M201.71,259.51a.57.57,0,1,1,1.14-.05c0,.39,0,.78,0,1.16a.57.57,0,0,1-.56.58.58.58,0,0,1-.58-.57C201.73,260.26,201.72,259.88,201.71,259.51Zm0,3.37a.56.56,0,0,1,.6-.54.58.58,0,0,1,.54.6c0,.39-.05.77-.08,1.16a.57.57,0,0,1-1.14-.1C201.64,263.63,201.67,263.26,201.69,262.88Zm-.34,3.36a.57.57,0,0,1,1.13.17c-.06.39-.13.77-.2,1.15a.57.57,0,0,1-1.12-.22C201.23,267,201.29,266.61,201.35,266.24Zm-.71,3.31a.59.59,0,0,1,.71-.4.57.57,0,0,1,.39.71c-.1.37-.21.75-.33,1.11a.57.57,0,1,1-1.09-.35C200.43,270.27,200.54,269.91,200.64,269.55Z"/></g></g><g id="Head"><g id="Group-61"><ellipse id="Oval-Copy-54" class="cls-65" cx="185.79" cy="164.62" rx="9.71" ry="9.28"/><ellipse id="Oval-Copy-55" class="cls-66" cx="191.5" cy="169.27" rx="9.71" ry="9.28"/><circle class="cls-67" cx="200.64" cy="177.69" r="19.98"/></g><g id="Path-8-2" data-name="Path-8"><g id="Path-3"><path class="cls-68" d="M187.37,204c-2.78,1.11-5.73,1.49-10.14,3.3,4,6.23,28.7,19.25,30.58,19.25,1,0,8.65-15.47,5.77-17.6-1.49-1.1-4.23-2.16-8.24-3.19l.43-9.51-13.61-7.08Q191.73,202.23,187.37,204Z"/></g><g class="cls-69"><path id="Path-9" class="cls-49" d="M192.1,189.15q2.47,15.38,13,16.61t9.73-6.69Z"/></g></g><g id="Group"><path class="cls-70" d="M216.24,180.1c-1.37,11.79-3.61,22.14-9,22.14-7.41,0-14.54-8.25-16.4-16.22l-.06-.26a3.69,3.69,0,0,1-.58,0,4.1,4.1,0,1,1,3.41-6.37c.22.1,0-11.45,13.26-10.58C217.18,169.53,216.42,178.52,216.24,180.1Z"/><g class="cls-71"><path id="Path-74" class="cls-49" d="M193.79,179.32q5.51-8.62,14.58-8.08t8.21,9l-.87-11.44L204.33,165l-9.3,4.93-2.32,5Z"/></g></g></g><g id="Hands"><g id="Path-21"><g id="Path-10"><path class="cls-72" d="M273.42,215.55c2-2.43,1.05-6.64,3.3-6.64a3.13,3.13,0,0,1,2.06,2.13,9.8,9.8,0,0,1,0,3.25q4.52.44,5.58,1.72c1.11,1.34.64,6.74,0,8.52-.91,2.48-2.09,2.48-4.63,3.26a16.91,16.91,0,0,0-3.54,1.85,3.73,3.73,0,0,1-3.26-.94,15.17,15.17,0,0,1-3.55-4.17Q271.38,218,273.42,215.55Z"/></g><g class="cls-73"><path id="Path-22-3" data-name="Path-22" class="cls-74" d="M270.37,221.73q2.6,7.26,8.84,6.1l-3,3.21-5.82-2.41Z"/></g><g class="cls-75"><path id="Path-45" class="cls-76" d="M279.82,215.05q-3.36.42-3.36,4.25c0,3.82.05,7.22,3.36,8.09q-5.81-.46-5.21-7.27T279.82,215.05Z"/></g></g><g id="Group-2"><polygon id="Path-49" class="cls-77" points="218.69 233.8 207.96 284.1 244 283.31 255.5 233.8 218.69 233.8"/><path id="Path-46" class="cls-78" d="M203.9,272.46q1.71-7.32,1.11-11.41,5.52-4.74,8.62-4.74l-.81,3.86q7.65-.32,11.21-3.86c3.55-3.55,1.79,4.39-.51,5.62s-1.3,8.3-6.82,9.42A65.6,65.6,0,0,1,203.9,272.46Z"/></g></g></g><g id="Rendi-pose-7"><g id="Head-2" data-name="Head"><g id="Group-2-2" data-name="Group"><path id="Combined-Shape" class="cls-79" d="M568,187.44l6.28-.06L575.63,206q-4.74,5.35-10.28,4.78t-10.83-7.66l2.17-6.82a27,27,0,0,1-7.2,1.15c-5.38,0-7.15-10.83-7-31.48,4.24,2.75,20.25,2.06,25.94,0C568.39,168.43,571,180.05,568,187.44Z"/></g><path id="Path-2-3" data-name="Path" class="cls-80" d="M551.48,178a4.75,4.75,0,0,0-2.65.82c-.53-2.25-1.46-6.62-2.87-7.57-6.17-4.1-9.86-10.54-5.49-14.75s21.57-1.06,25.92-1.44q10.38-.91,10.38,8.52a5.39,5.39,0,0,1,4.4,0c3.07,2.37,2.91,12.9-2.76,26.2-1.45,3.38-4.57,5.07-9.18,5.07-4.37,0-7.85.77-9.8-2.65a21.08,21.08,0,0,0-4.71-5.54,5,5,0,0,0,1.57-3.68A4.9,4.9,0,0,0,551.48,178Z"/></g><g id="Shoes"><g id="Path-27"><g id="Path-23"><path class="cls-81" d="M503.84,517.62q-2.25,9.17-15.91,9.86t-11.64,9.86h45.65q7.53,0,5.71-5.49l-3.77-14.23Z"/></g><g class="cls-82"><rect id="Rectangle" class="cls-83" x="476.04" y="530.35" width="51.97" height="7.02"/></g></g><g id="Path-23-Copy-3"><g id="Path-23-Copy"><path class="cls-84" d="M596.85,517.62a31.56,31.56,0,0,0,8.84,9.86c5.79,4.37,3.59,9.86.41,9.86H573.54q-7.53,0-5.7-5.49l9-14.23Z"/></g><g class="cls-85"><rect class="cls-83" x="567.48" y="530.35" width="41.8" height="7.02"/></g></g></g><g id="hand-1"><path class="cls-86" d="M584.49,309.64a63.54,63.54,0,0,1-4.57,5.2c-.68.75,3.35.53,2.31,2.2-1.57,2.51,3.17,1.3,2.62,2.92-.75,2.23,2.86-.44,4.85-2s4.25,2.48,9,.28c1.39-.64,4.52-3.41,8.3-7.54a21.37,21.37,0,0,0-10.76-8.75l-3.61.54.21,2.09c.14,1.09-.26,2.5-1.58,2.5s-7.14,0-8.5.49a43.12,43.12,0,0,0-5.9,3.52c.28,1.16,3,1,4.54-.39A6,6,0,0,1,584.49,309.64Z"/></g><g id="Pants"><g id="Path-14"><path class="cls-87" d="M528.77,312.42c-15.74,74.89-10.38,70.4-18.24,116-1.77,10.24-.86,22.12-2.92,32.39-3.3,16.33-1.35,30.3-5.41,46.69-1,3.89-4,10,.88,11s19.35.63,22.53.63,1.47-6.58,2.71-9.81q12-31.44,13.59-57,1.8-29.52,16.23-84.27,11.29,45.71,11.29,81.88c0,18.36,2.94,38.84,5,55.65.53,4.35-2.92,12.21,2,12.95s17.4.75,20.77.63,2.52-10.41,4.24-21.67-3.19-36.18-1.82-76.83q1.36-40.65-7.4-106.52Z"/></g><g class="cls-88"><path id="Path-90" class="cls-56" d="M560.82,361.26l15.12-33.45q3.13,15.63-3.49,26.79c-6.61,11.15,4.2,33.73-2.09,41.57q-6.3,7.83-2.75,30l-9.34-52.49Z"/></g><g class="cls-88"><path id="Path-16-6" data-name="Path-16" class="cls-56" d="M593.45,313.37Q592.64,328,570.25,328c-22.4,0-10.35,17.52-33.23,23.3s-10.56,30.71-24.47,30.71q-13.92,0-3.51-68.68Z"/></g></g><g id="hand-2"><g id="Path-39"><path class="cls-89" d="M524.56,334.65q-8.37,10.38-6.37,15.57c2,5.19,12.06,11.36,17.13,3.8,2.32-3.47-4.85-1.34-3.51-2.84s1.54-1.11,4.43-4.27c3.77-4.12,1.3-6.18,2.32-9.79Q540.33,330.9,524.56,334.65Z"/></g><g class="cls-90"><path id="Path-51" class="cls-91" d="M524.51,334.16q3.54,8.76,15.66,9.66l-.3-8.42Z"/></g></g><g id="Shirt-2" data-name="Shirt"><path class="cls-92" d="M538.73,204.83c8.93-2.85,30.7-6.14,52.11-2.21a28.36,28.36,0,0,1,16.47,9.15c20.39,21.16,28.71,38.41,33.88,44.75q5.16,6.35-.41,13.67c-9.77,14.17-16.61,25-28.8,37.22-.69.7-1.81,3.48-3.73,4.47q-7.29,0-12.69-11.13Q613.14,273,618.4,266.33q-12.85-13.12-21.83-19.72-4.38,34.27-4.43,44.7c0,10.23,1.89,19.35,1.85,20.57-.11,3.71,3.75,10.38-10.61,10.38s-20.76-1.91-35.12-1.91c-1.47,0-4.42,18.54-8.45,18.54q-9.6,0-16-4.75c-3.19-1.25,4.74-29.07,4.74-71.35l-1.52-40C525.87,210.45,532.77,206.73,538.73,204.83Z"/><g class="cls-93"><path id="Path-7" class="cls-59" d="M537.09,199.31Q531.73,206,550.37,206t32.46-8.7Z"/></g><g class="cls-94"><path id="Path-36" class="cls-59" d="M596.44,247.09l2.91-20.87q2.21,20.86,10.68,23.1c8.47,2.22,5.26,12.9,8.29,17q-6.3.63-19,2.22Z"/></g><g class="cls-94"><path id="Path-38" class="cls-59" d="M547.79,320.82q5.46-31.43,6.05-42.33t0-39.53q6.79,9.93,6.79,19.91c0,10,14,20.5,2.64,31.94s-1.73,27.64-7.93,30.78Q549.15,324.74,547.79,320.82Z"/></g></g><g id="Combined-Shape-2"><path class="cls-95" d="M531.05,351.51q5.88-4.93,6.7-6.64t.29-6c2.2.33,3.89-.93,5.08-3.8s3.64-12.9,7.34-30.08l25,6.36-14.83,48.7Zm-4.34-52.06q-4.05,33.78-2.16,35.19-6.51,8.16-6.75,13.48l-22.17-5.72,12.08-47.29Z"/><g class="cls-96"><path id="Path-42" class="cls-59" d="M557,306.53q1.14,6.06-5.78,15.06c-6.92,9-2.07,22.09-8.78,24q-6.71,1.93-8.58,9.47L515.13,350q-.06-11,5.18-16.77c5.24-5.82-6-26.13,2.79-35.08Q531.84,289.21,557,306.53Z"/></g></g></g><g id="Ideas"><path id="Path-3-2" data-name="Path" class="cls-97" d="M313.21,82A17.38,17.38,0,0,1,348,82a16.25,16.25,0,0,1-7.1,14,4.32,4.32,0,0,0-1.81,3.52v3.41H322.12V99.49A4.35,4.35,0,0,0,320.31,96,16.25,16.25,0,0,1,313.21,82Z"/><path id="Oval-2" data-name="Oval" class="cls-98" d="M330.58,91.88a9.1,9.1,0,1,1,9.1-9.1A9.1,9.1,0,0,1,330.58,91.88Zm0-2.16a6.94,6.94,0,1,0-6.93-6.94A6.94,6.94,0,0,0,330.58,89.72Z"/><path class="cls-99" d="M324.79,104.38h11.59a2.68,2.68,0,0,1,0,5.35H324.79a2.68,2.68,0,0,1,0-5.35Z"/><path id="Path-153" class="cls-60" d="M328,83a1,1,0,0,1-.76.32h-7.76a1.08,1.08,0,1,1,0-2.16h7.31l2.28-2.28a1.08,1.08,0,0,1,1.8.45L332,83.17l.7-1.39a1.1,1.1,0,0,1,1-.59H343a1.08,1.08,0,1,1,0,2.16h-8.61l-1.62,3.2a1.08,1.08,0,0,1-2-.18l-1.42-4.66Z"/></g><g id="Coin-1"><circle id="Oval-3" data-name="Oval" class="cls-100" cx="699.13" cy="156.49" r="25.61"/><path id="Oval-Copy-65" class="cls-98" d="M699.13,177.05a20.56,20.56,0,1,1,20.56-20.56A20.56,20.56,0,0,1,699.13,177.05Zm0-3.2a17.36,17.36,0,1,0-17.36-17.36A17.36,17.36,0,0,0,699.13,173.85Z"/><path class="cls-7" d="M704.86,159.56a3.86,3.86,0,0,1-1.15,2.84,5.59,5.59,0,0,1-3.11,1.49v1.19a1.25,1.25,0,0,1-.34.9,1.24,1.24,0,0,1-.91.34,1.21,1.21,0,0,1-.89-.34,1.19,1.19,0,0,1-.36-.9V164a9.18,9.18,0,0,1-2.21-.48,7.6,7.6,0,0,1-1.89-.95,1.31,1.31,0,0,1-.47-.47,1.44,1.44,0,0,1-.13-.66,1.42,1.42,0,0,1,.32-.91.93.93,0,0,1,.74-.4,2.12,2.12,0,0,1,1,.33,8.5,8.5,0,0,0,1.82.83,6.27,6.27,0,0,0,1.8.26A3.3,3.3,0,0,0,701,161a1.5,1.5,0,0,0,.67-1.32,1.09,1.09,0,0,0-.39-.86,2.83,2.83,0,0,0-.94-.52l-1.63-.48a19.88,19.88,0,0,1-2.53-.79,4.29,4.29,0,0,1-1.72-1.24,3.45,3.45,0,0,1-.72-2.29,4,4,0,0,1,1.2-2.9,5.7,5.7,0,0,1,3.13-1.54v-1.18a1.23,1.23,0,0,1,.35-.91,1.25,1.25,0,0,1,.9-.34,1.21,1.21,0,0,1,.9.34,1.23,1.23,0,0,1,.35.91v1.14a7.76,7.76,0,0,1,3.51,1.42,1.27,1.27,0,0,1,.45.48,1.48,1.48,0,0,1-.19,1.56.94.94,0,0,1-.74.39,1.42,1.42,0,0,1-.42-.06,2.67,2.67,0,0,1-.55-.27,9.66,9.66,0,0,0-1.53-.81,4.51,4.51,0,0,0-1.66-.27,2.91,2.91,0,0,0-1.8.5,1.56,1.56,0,0,0-.67,1.33,1.25,1.25,0,0,0,.39,1,2.94,2.94,0,0,0,1,.57c.4.14,1,.3,1.69.48a18.84,18.84,0,0,1,2.48.76,4.07,4.07,0,0,1,1.67,1.22A3.48,3.48,0,0,1,704.86,159.56Z"/></g><g id="Settings-1"><path id="Shape" class="cls-101" d="M45.88,237.2a6,6,0,0,1-8.48-4.89,18.22,18.22,0,0,0-7.75-13.43,6,6,0,0,1-1.49-8.3,5.86,5.86,0,0,1,1.49-1.49,18.22,18.22,0,0,0,7.75-13.43,6,6,0,0,1,8.48-4.9,18.22,18.22,0,0,0,15.51,0,5.95,5.95,0,0,1,8.47,4.9,18.23,18.23,0,0,0,7.76,13.43,6,6,0,0,1,1.49,8.3,6,6,0,0,1-1.49,1.49,18.23,18.23,0,0,0-7.76,13.43,5.94,5.94,0,0,1-8.47,4.89A18.22,18.22,0,0,0,45.88,237.2ZM53.63,222a8,8,0,1,0-8-8A8,8,0,0,0,53.63,222Z"/><path id="Oval-4" data-name="Oval" class="cls-64" d="M53.63,227.2A13.22,13.22,0,1,1,66.85,214,13.21,13.21,0,0,1,53.63,227.2Zm0-1.1A12.12,12.12,0,1,0,41.52,214,12.12,12.12,0,0,0,53.63,226.1Z"/></g><g id="Chat-1"><path id="Path-4-2" data-name="Path" class="cls-102" d="M470.76,22.93h23.12a7.7,7.7,0,0,1,7.7,7.7V47a7.71,7.71,0,0,1-7.7,7.71H472.81L466.17,60a1.93,1.93,0,0,1-3.12-1.52V30.63A7.71,7.71,0,0,1,470.76,22.93Z"/><path id="Combined-Shape-2-2" data-name="Combined-Shape" class="cls-103" d="M475.15,42.3a2.46,2.46,0,1,1,2.46-2.46A2.47,2.47,0,0,1,475.15,42.3Zm8.2,0a2.46,2.46,0,1,1,2.46-2.46A2.46,2.46,0,0,1,483.35,42.3Zm8.2,0A2.46,2.46,0,1,1,494,39.84,2.46,2.46,0,0,1,491.55,42.3Z"/><path class="cls-104" d="M499.85,40.05a4.62,4.62,0,0,1,4.62,4.62v15.1a1.92,1.92,0,0,1-3.12,1.51l-2.73-2.16H486a4.62,4.62,0,0,1-4.63-4.62V44.67A4.62,4.62,0,0,1,486,40.05Z"/><path class="cls-103" d="M488.92,52.19a2.46,2.46,0,1,1,2.46-2.46A2.46,2.46,0,0,1,488.92,52.19Zm8.2,0a2.46,2.46,0,1,1,2.46-2.46A2.46,2.46,0,0,1,497.12,52.19Z"/></g><g class="cls-105"><g class="cls-106"><polygon class="cls-107" points="155.31 392.52 246.32 297.46 246.32 458.42 155.37 458.42 155.31 392.52"/></g><g class="cls-108"><polygon class="cls-109" points="246.08 297.41 246.08 297.41 307.58 319.64 307.58 458.42 246.32 458.42 246.08 297.41"/></g><g class="cls-110"><polygon class="cls-111" points="307.58 319.64 307.58 319.64 352.65 280.89 352.65 458.42 307.58 458.42 307.58 319.64"/></g><g class="cls-112"><polygon class="cls-113" points="352.65 280.89 352.65 280.89 415.06 275.31 415.06 458.45 352.65 458.45 352.65 280.89"/></g><g class="cls-114"><polygon class="cls-115" points="495.48 143.94 495.48 458.42 415.06 458.42 415.06 275.31 415.06 275.31 495.48 143.94"/></g><g class="cls-116"><polygon class="cls-117" points="495.48 458.42 495.48 143.94 495.48 143.94 595.94 100.34 595.94 458.42 495.48 458.42"/></g></g><path class="cls-118" d="M640.92,374.77c4.49-2.15,9,12.15,9,12.15,7.64,10.09,18.31-3.33,17.26,11.75-1.82,26.4,30.38,8.3,15.53,35.86s13.12,15.58,3.88,37.8,2.74,48.72-11.16,37.83c0,0-12.23-26.83-24.85-35.13s7.56-18.14,3.62-29.42c-5.74-16.37-19.55-15.73-9.59-33.32S625.64,382.07,640.92,374.77Z"/><g class="cls-119"><path class="cls-120" d="M679.79,500.06c-6-4.23-13.07-33.75-13.49-51.33-.21-9-2.88-12.75-5.22-16.06s-4.19-5.9-3.06-12.17c2.16-12-3.51-17.17-3.57-17.22l.66-.75c.25.22,6.16,5.56,3.89,18.14-1,5.87.69,8.32,2.89,11.42,2.31,3.26,5.19,7.31,5.41,16.62.45,18.87,7.65,46.73,13.07,50.54Z"/></g><path class="cls-121" d="M682.05,502.25a13.35,13.35,0,0,1-2.55-.27,5.56,5.56,0,0,1-4.52-3.64c-1.63-4.65,2.13-12.19,5.19-15.82a23.25,23.25,0,0,0,4.61-15c-.09-1.45-.24-2.79-.37-4-.39-3.42-.66-5.9.81-7.55,1.29-1.46,3.8-2.09,8.37-2.11,8,0,11.18-3.35,13.73-6a14.63,14.63,0,0,1,3.34-2.88h0c4-2.18,8.23-2.5,10.06-.76.87.82,1.61,2.44.16,5.46a20.91,20.91,0,0,1-4.4,5.91c-1.85,1.88-3.07,3.13-2.44,5.62.15.58.33,1.17.5,1.76,1.23,4.23,2.63,9-4.6,12.27-1.53.69-2.93,1.24-4.17,1.72-5,2-8.09,3.18-11.53,10.44-.67,1.4-1.26,2.74-1.82,4C689.7,497.6,687.65,502.25,682.05,502.25Z"/><g class="cls-119"><path class="cls-120" d="M679.61,508l-1-.05c0-.93,1.31-23,10.15-29.41,9.7-7.07,12.76-14.67,14.22-19.77,1.72-6,10.45-7.62,10.82-7.68l.18,1c-.09,0-8.5,1.56-10,7-1.5,5.24-4.64,13-14.59,20.31C680.88,485.52,679.62,507.78,679.61,508Z"/></g><path class="cls-122" d="M699.83,397c-6.29-2.16-5,10-7.64,18.92s-29.55,3.91-18.26,26.36-14.27,7.51-6.64,27.09.67,40.54,9,35.21,4.66-30,13.29-32.92,10-6.35,1.49-14.32,22.4-15.88,14.76-32S707.09,399.49,699.83,397Z"/><g class="cls-119"><path class="cls-120" d="M680.11,503.64c-.79-3.35-7.54-32.86-1.25-36.43,5.56-3.14,5.42-15.37,4.55-26.92-.76-10.22,12.36-15,12.92-15.19l.34.94c-.13,0-13,4.72-12.26,14.18.89,11.86,1,24.44-5,27.86-4.79,2.71-.38,26.43,1.72,35.33Z"/></g><polygon class="cls-123" points="694.4 493.14 685.42 527.18 665.37 527.18 656.39 493.14 694.4 493.14"/></g></g></svg>